<?xml version="1.0" standalone="no"?>
<!DOCTYPE svg PUBLIC "-//W3C//DTD SVG 1.1//EN" "http://www.w3.org/Graphics/SVG/1.1/DTD/svg11.dtd">
<svg xmlns="http://www.w3.org/2000/svg">
<defs >
<font id="EBGaramond" horiz-adv-x="570" ><font-face
    font-family="EB Garamond"
    units-per-em="1000"
    panose-1="0 0 8 0 0 0 0 0 0 0"
    ascent="1007"
    descent="-298"
    alphabetic="0" />
<glyph unicode=" " glyph-name="space" horiz-adv-x="237" />
<glyph unicode="!" glyph-name="exclam" horiz-adv-x="302" d="M120 178T120 202Q120 213 123 228Q148 364 185 538Q196 584 222 616T284 649Q304 649 318 632T332 583Q332 555 319 520Q312 499 274 416T183 228Q170 204 160 191T138 178Q120 178 120 202ZM59
-14T42 3T25 44Q25 78 51 104T113 130Q141 130 158 111T175 68Q175 35 148 11T83 -14Q59 -14 42 3Z" />
<glyph unicode="&quot;" glyph-name="quotedbl" horiz-adv-x="398" d="M136 408T136 417Q136 424 140 436Q146 454 149 469Q150 474 152 481T158 499Q168 534 177 572L188 617Q196 641 229 659Q253 672 267 677T297 683Q312 683 312 663Q312 657 308 643Q294 599
256 541T181 439Q172 428 160 418T142 408Q136 408 136 417ZM297 408T297 417Q297 424 301 436Q307 454 310 469Q311 474 313 481T319 499Q329 534 338 572L349 617Q357 641 390 659Q414 672 428 677T458 683Q473 683 473 663Q473 657 469 643Q455 599 417 541T342
439Q333 428 321 418T303 408Q297 408 297 417Z" />
<glyph unicode="#" glyph-name="numbersign" horiz-adv-x="478" d="M-18 -95T-21 -89T-22 -77L-20 -72L59 88L0 86H-1Q-9 86 -13 92T-16 106Q-9 139 5 156T37 174L107 177L156 289L89 286H87Q79 286 75 292T73 305Q80 339 94 356T126 374L200 377L273 525Q283
550 325 550Q330 550 332 545T332 532Q331 530 330 529T328 525L258 380L375 384L450 536Q460 561 497 561Q502 561 504 556T505 543Q504 541 503 540T502 536L430 387L488 390H490Q500 390 505 385T508 370Q503 346 485 325T451 302L386 299L330 186L399 189H401Q411
189 416 184T419 169Q414 146 396 124T362 101L287 98L211 -57Q205 -71 197 -75T173 -79Q166 -79 161 -74T157 -62L158 -57L234 96L116 91L36 -72Q30 -86 19 -90T-11 -95Q-18 -95 -21 -89ZM277 183L331 296L215 292L159 179L277 183Z" />
<glyph unicode="$" glyph-name="dollar" horiz-adv-x="549" d="M631 647T631 636Q631 630 627 625Q609 602 589 556T557 467Q550 442 535 442Q525 442 521 452T516 483Q516 528 499 562T451 614L360 398Q367 393 381 381Q441 332 464 290T488 196Q488 143 457
95T366 16T228 -14Q200 -14 187 -13L158 -82Q156 -88 146 -92T122 -96Q104 -96 104 -79Q104 -74 106 -66L132 -5Q117 -1 97 6Q64 19 58 19Q49 19 33 12Q13 0 7 0Q1 0 -8 8T-17 23Q-17 29 -4 57Q12 93 22 123T38 187Q41 205 46 212T63 220Q76 220 79 207T83 157Q83
120 100 87T149 37L250 275Q244 279 241 282Q187 328 164 369T140 468Q140 523 172 568T260 638T388 664Q405 664 413 663L431 705Q435 714 449 720T479 726Q491 726 491 714Q491 708 486 696L469 655Q465 656 505 645Q510 643 530 638T563 632Q579 632 589 638Q607
647 617 647Q631 647 631 636ZM399 629H392Q356 629 330 613T291 572T277 521Q277 497 286 478T318 436L399 629ZM347 162T335 184T292 236L202 22H212Q273 22 310 55T347 137Q347 162 335 184Z" />
<glyph unicode="%" glyph-name="percent" horiz-adv-x="731" d="M145 263T118 292T91 376Q91 419 106 465Q126 527 178 571T295 616Q340 616 365 586T390 504Q390 466 377 423Q355 352 304 308T190 263Q145 263 118 292ZM218 295T241 334T281 426Q306 508 306
546Q306 583 285 583Q263 583 240 544T199 450Q174 372 174 332Q174 295 196 295Q218 295 241 334ZM84 -21T78 -16T72 -2Q72 5 78 11L686 653Q701 669 734 669Q744 669 750 664T756 653Q756 647 752 643L145 4Q124 -21 94 -21Q84 -21 78 -16ZM451 -17T424 12T397
96Q397 139 412 185Q432 247 484 291T601 336Q646 336 671 306T696 224Q696 186 683 143Q661 72 610 28T496 -17Q451 -17 424 12ZM524 15T547 54T587 146Q612 228 612 266Q612 303 591 303Q569 303 546 264T505 170Q480 92 480 52Q480 15 502 15Q524 15 547 54Z"
/>
<glyph unicode="&amp;" glyph-name="ampersand" horiz-adv-x="852" d="M868 718T897 686T926 594Q926 550 908 513T855 453T778 429Q755 428 749 425T747 416Q775 370 775 303Q775 207 730 135T603 25T418 -14Q325 -14 249 19T130 113T86 250Q86 305 104 354T157
439Q142 478 142 527Q142 580 170 624T247 693T353 718Q408 718 440 690T473 612Q473 586 459 571T420 555Q406 555 394 567T381 593Q381 615 366 632T331 650Q273 650 239 617T204 525Q204 500 207 479Q252 506 307 506Q364 505 393 481T422 416Q422 378 390 350T311
322Q271 322 238 340T180 392Q163 356 163 308Q163 253 193 208T288 135T450 107Q534 107 596 135T690 211T722 320Q722 371 690 404T595 437Q560 437 535 414T510 360Q510 341 524 329T561 316Q568 316 574 320T585 331T592 339Q601 349 608 354T625 359Q649 359
661 346T674 313Q674 282 653 263T600 243Q541 243 504 275T467 357Q467 439 517 481T648 524H730Q812 524 847 547T882 625Q882 651 866 666T829 682Q815 682 808 677T801 665Q801 653 816 643Q834 631 834 610Q834 590 819 575T779 560Q752 560 737 578T721 623Q721
660 748 689T824 718Q868 718 897 686ZM252 470T215 439Q237 366 309 366Q338 366 355 380T372 419Q372 441 355 455T308 470Q252 470 215 439Z" />
<glyph unicode="&apos;" glyph-name="quotesingle" horiz-adv-x="237" d="M136 408T136 417Q136 424 140 436Q146 454 149 469Q150 474 152 481T158 499Q168 534 177 572L188 617Q196 641 229 659Q253 672 267 677T297 683Q312 683 312 663Q312 657 308 643Q294
599 256 541T181 439Q172 428 160 418T142 408Q136 408 136 417Z" />
<glyph unicode="(" glyph-name="parenleft" horiz-adv-x="300" d="M95 -215T73 -170Q51 -126 39 -62T27 74Q27 196 68 312T187 527T369 692Q394 706 411 706Q420 706 425 703T431 693Q431 684 416 672Q325 599 256 495T149 271T110 34Q110 -19 116 -56T133 -143Q140
-167 143 -189Q144 -200 139 -207T124 -215Q95 -215 73 -170Z" />
<glyph unicode=")" glyph-name="parenright" horiz-adv-x="300" d="M227 706T249 661Q271 617 283 553T295 417Q295 295 254 179T135 -36T-47 -201Q-72 -215 -89 -215Q-98 -215 -103 -212T-109 -202Q-109 -193 -94 -181Q-3 -108 66 -4T173 220T212 457Q212 510
206 547T189 634Q182 658 179 680Q178 691 183 698T198 706Q227 706 249 661Z" />
<glyph unicode="*" glyph-name="asterisk" horiz-adv-x="360" d="M219 357T212 366T204 390Q204 398 205 402L223 473Q171 469 148 466Q132 464 120 471T108 491Q108 504 117 513T138 524L208 541Q205 546 201 551T191 564Q175 584 164 600Q156 611 156 625Q156
637 163 645T183 653Q200 653 211 639Q235 612 260 587Q271 618 288 654Q301 679 320 679Q332 679 339 670T347 646Q347 639 346 635L325 565Q330 565 356 569Q392 575 405 575Q420 575 429 569T438 551Q438 540 430 530T410 516L340 497Q343 492 358 475Q374 458
385 442Q396 429 396 415Q396 404 389 396T370 388Q353 388 341 399Q330 412 289 450Q275 409 261 379Q256 370 249 364T232 357Q219 357 212 366Z" />
<glyph unicode="+" glyph-name="plus" horiz-adv-x="597" d="M287 -11T283 -6T279 5V208Q279 220 268 220H58Q52 220 47 224T42 232Q42 247 49 263T70 280H266Q274 280 276 283T279 293V473Q279 487 296 497T326 507Q333 507 337 501T341 485V293Q341 280 353
280H557Q566 280 572 276T578 265Q577 250 567 235T544 220H353Q341 220 341 208V17Q341 3 324 -4T292 -11Q287 -11 283 -6Z" />
<glyph unicode="," glyph-name="comma" horiz-adv-x="268" d="M-58 -159T-63 -155T-66 -143Q-61 -128 -37 -123Q4 -115 34 -87T65 -28Q65 -6 35 5Q22 9 14 18T6 43Q6 74 29 96T85 119Q121 119 144 96T168 34Q168 -11 137 -56T56 -130T-46 -159Q-58 -159 -63 -155Z" />
<glyph unicode="-" glyph-name="hyphen" horiz-adv-x="321" d="M29 164Q19 164 19 176Q19 200 33 217T61 237Q170 253 293 265H295Q302 265 304 261T306 249Q306 235 293 216T267 194L222 188Q104 171 31 164H29Z" />
<glyph unicode="." glyph-name="period" horiz-adv-x="268" d="M39 -30T21 -11T2 35Q2 74 31 104T99 134Q130 134 148 113T166 63Q166 25 137 -2T66 -30Q39 -30 21 -11Z" />
<glyph unicode="/" glyph-name="slash" horiz-adv-x="277" d="M-54 -60T-60 -54T-62 -40L333 646Q343 664 368 664L380 663Q391 662 396 655T398 641L2 -45Q-5 -56 -16 -58T-44 -60Q-54 -60 -60 -54Z" />
<glyph unicode="0" glyph-name="zero" horiz-adv-x="529" d="M160 -14T119 37T78 174Q78 235 99 302Q127 392 179 467T301 586T448 631Q526 631 567 580T608 444Q608 383 587 317Q558 223 504 148T381 29T237 -14Q160 -14 119 37ZM305 26T352 105T434 299Q470
414 470 496Q470 539 459 563T423 588Q379 588 333 511T253 319Q236 264 226 211T216 116Q216 26 262 26Q305 26 352 105Z" />
<glyph unicode="1" glyph-name="one" horiz-adv-x="529" d="M39 -3T35 1T31 11Q35 27 55 32Q106 44 129 56T163 98L272 451Q276 463 276 475Q276 498 260 509T212 526Q193 530 193 543Q193 556 205 564T231 573Q334 579 456 631Q468 637 473 637Q480 637 483 634T484
626L476 606Q464 578 456 553L315 96Q312 87 312 80Q312 62 326 54T380 32Q389 28 393 24T396 12Q395 6 388 2T372 -2Q350 -2 286 0Q228 2 208 2Q187 2 129 0Q83 -3 44 -3Q39 -3 35 1Z" />
<glyph unicode="2" glyph-name="two" horiz-adv-x="529" d="M357 -3Q293 1 230 1Q165 1 96 0T-9 -3Q-15 -3 -15 2Q-15 6 -12 11T-4 20L219 203Q312 279 352 338T392 455Q392 500 369 521T308 542Q272 542 243 525T185 475Q181 471 174 463T161 454Q157 454 155
458T152 470Q152 500 183 538T264 605T371 633Q447 633 492 598T537 507Q537 452 504 404T409 300Q366 262 234 165L162 110L161 108Q161 105 174 103Q198 99 256 99Q315 99 354 103Q388 106 412 119T460 163Q466 171 476 177T495 185Q504 185 504 174Q504 169
501 163Q471 120 446 79T413 19Q409 9 400 3T386 -4L357 -3Z" />
<glyph unicode="3" glyph-name="three" horiz-adv-x="529" d="M57 -38T32 -26T6 7Q6 30 15 44T40 59Q50 59 80 40Q124 15 154 15Q198 15 232 43T286 117T306 212Q306 247 291 268T243 289Q217 289 197 280T172 268Q166 266 162 266Q156 266 152 269T148 280Q148
296 163 307T209 334Q282 369 328 407T375 494Q375 521 359 541T315 561Q250 561 201 484Q191 469 181 469Q174 469 167 480T159 501Q159 515 188 547T265 604T374 629Q417 629 448 614T495 575T511 524Q511 474 457 430T328 356Q324 354 324 352T327 350Q362 349
393 334T443 292T462 232Q462 176 415 122T291 23Q186 -38 104 -38Q57 -38 32 -26Z" />
<glyph unicode="4" glyph-name="four" horiz-adv-x="529" d="M388 -3T384 1T382 11Q386 27 407 32Q450 40 467 52T495 93L511 147L512 152Q512 161 499 161Q472 161 394 157Q308 153 268 153Q265 153 263 156T261 164Q261 169 264 172L281 188Q286 192 306 212L672
607Q685 621 701 631T727 642H753Q755 642 755 640Q755 637 750 631T743 621L403 255Q397 249 397 245Q397 241 406 241H532Q540 241 542 247L581 374Q586 392 591 398T608 409Q635 421 664 425T714 429Q733 429 733 411Q733 401 727 380T718 353L683 242Q682 240
683 238T686 235Q703 234 722 234Q732 234 778 236Q783 236 786 234T788 229Q784 216 767 188T744 159L698 160Q680 160 671 159Q658 156 654 145L639 96Q634 79 634 72Q634 57 645 49T686 32Q694 28 697 24T698 12Q693 -2 677 -2Q655 -2 603 0Q555 2 536 2Q516
2 468 0Q431 -3 394 -3Q388 -3 384 1Z" />
<glyph unicode="5" glyph-name="five" horiz-adv-x="529" d="M33 -38T18 -22T3 16Q3 29 7 37T19 46Q28 46 36 42T52 33Q55 31 63 26T82 16Q103 8 132 8Q182 8 223 27T290 82T315 167Q315 213 285 246T181 316Q175 319 161 326T142 339T137 353Q137 361 140 370Q151
402 192 471T236 545Q249 568 264 579T299 594Q341 603 421 615T522 629Q531 629 534 625T538 610Q538 597 526 570T493 522T449 498Q426 496 401 495T356 493Q279 491 260 488Q250 487 240 474T225 450L224 446Q224 440 232 437Q451 356 451 234Q451 157 397 95T253
-2T64 -38Q33 -38 18 -22Z" />
<glyph unicode="6" glyph-name="six" horiz-adv-x="529" d="M137 -14T94 34T51 163Q52 270 132 378T336 564T576 657Q583 658 596 658Q621 658 621 648Q621 638 616 634T593 624Q507 601 410 520T248 336T182 147Q182 87 200 58T260 28Q308 28 340 72T372 190Q372
227 353 248T306 270Q289 270 267 261Q255 256 251 256Q245 256 245 262Q245 271 259 285Q284 313 319 330T384 348Q435 348 467 316T499 229Q499 177 465 120T368 25T228 -14Q137 -14 94 34Z" />
<glyph unicode="7" glyph-name="seven" horiz-adv-x="529" d="M71 -30T62 -21T54 2Q54 7 61 16T79 35L95 53L468 484Q473 491 473 493Q473 498 462 498H255Q229 498 212 490T174 461Q142 429 122 429Q109 429 109 439Q109 448 122 470L145 514Q179 580 187 605Q190
615 198 619T214 622Q304 616 304 616L474 614Q570 614 630 618Q635 618 639 610T642 596Q640 591 627 577T608 556L585 531L116 2Q109 -5 98 -17T84 -30Q71 -30 62 -21Z" />
<glyph unicode="8" glyph-name="eight" horiz-adv-x="529" d="M122 -13T78 26T30 121Q30 168 52 200T113 255T215 304Q224 309 224 311Q224 313 221 316T217 321Q178 370 162 397T145 453Q145 496 178 537T267 603T382 629Q430 629 464 613T516 572T534 517Q534
481 504 442T421 375Q394 362 377 351Q366 346 366 342Q366 338 373 331Q421 280 442 245T463 168Q463 123 426 81T328 13T200 -13Q122 -13 78 26ZM383 396T404 440T425 523Q425 592 360 592Q321 592 296 565T270 492Q270 433 329 372Q335 366 339 366Q343 366
350 371Q383 396 404 440ZM260 23T292 54T324 138Q324 169 309 202T262 274Q261 276 258 280T250 284Q248 284 235 276Q185 239 165 201T144 110Q145 78 164 51T215 23Q260 23 292 54Z" />
<glyph unicode="9" glyph-name="nine" horiz-adv-x="531" d="M55 -17T43 -17Q16 -17 16 -6Q16 3 21 8T45 17Q140 37 234 108T390 281T452 487Q452 532 431 559T371 587Q340 587 314 566T272 508T257 430Q257 393 277 369T325 345Q341 345 352 349T366 355Q388
363 388 354Q388 344 375 332Q360 316 335 298Q314 284 291 276T248 267Q196 267 164 296T132 380Q132 431 174 490T283 589T424 629Q466 629 499 607T552 546T571 462Q571 370 497 262T304 75T61 -16Q55 -17 43 -17Z" />
<glyph unicode=":" glyph-name="colon" horiz-adv-x="268" d="M124 246T106 265T87 311Q87 350 116 380T184 410Q215 410 233 389T251 339Q251 301 222 274T151 246Q124 246 106 265ZM39 -30T21 -11T2 35Q2 74 31 104T99 134Q130 134 148 113T166 63Q166 25 137
-2T66 -30Q39 -30 21 -11Z" />
<glyph unicode=";" glyph-name="semicolon" horiz-adv-x="268" d="M-58 -159T-63 -155T-66 -143Q-61 -128 -37 -123Q4 -115 34 -87T65 -28Q65 -6 35 5Q22 9 14 18T6 43Q6 74 29 96T85 119Q121 119 144 96T168 34Q168 -11 137 -56T56 -130T-46 -159Q-58 -159 -63
-155ZM124 246T106 265T87 311Q87 350 116 380T184 410Q215 410 233 389T251 339Q251 301 222 274T151 246Q124 246 106 265Z" />
<glyph unicode="&lt;" glyph-name="less" horiz-adv-x="598" d="M87 189Q38 212 38 220Q38 229 50 247T77 271L501 467Q507 470 513 470Q520 470 524 464T529 448Q529 434 519 421T493 399L136 238Q132 236 132 234T136 229L494 69Q510 62 519 48T529 20Q529 7
522 1T506 -1L87 189Z" />
<glyph unicode="=" glyph-name="equal" horiz-adv-x="633" d="M61 316T56 320T51 328Q51 341 58 356T79 372H588Q597 372 603 368T610 357Q610 344 600 330T578 316H67Q61 316 56 320ZM61 135T56 139T51 148Q51 161 58 176T79 191H588Q597 191 603 187T610 176Q610
163 600 149T578 135H67Q61 135 56 139Z" />
<glyph unicode="&gt;" glyph-name="greater" horiz-adv-x="598" d="M78 2T75 2Q69 2 65 7T60 24Q60 38 70 52T96 73L452 233Q457 235 457 237T452 242L94 403Q79 410 70 424T60 453Q60 462 63 468T75 475Q78 475 82 473L501 279Q518 272 534 263T551 248Q551 239
539 222T511 197L84 4Q78 2 75 2Z" />
<glyph unicode="?" glyph-name="question" horiz-adv-x="388" d="M158 177T144 190T120 222T109 262Q109 299 120 326T166 378T265 425Q377 459 377 522Q377 550 359 566T303 583Q290 583 274 575T251 564Q248 562 235 556T212 550Q195 550 184 561T173 591Q173
622 199 641T265 661Q306 661 341 637T397 570T419 472Q419 430 390 392T315 335L222 296Q195 285 186 274T176 244Q176 232 180 214Q181 208 183 201T186 188Q186 177 165 177Q158 177 144 190ZM108 -14T92 3T76 43Q76 78 101 103T160 129Q187 129 202 111T218
68Q218 36 192 11T131 -14Q108 -14 92 3Z" />
<glyph unicode="@" glyph-name="at" horiz-adv-x="793" d="M213 -154T149 -124T48 -39T12 87Q12 205 83 309T270 475T517 537Q591 537 651 507T746 426T780 314Q780 242 739 175T632 66T494 24Q463 24 451 39T438 71Q438 82 434 82Q430 82 421 75Q397 56 361 39T284
22Q232 22 202 51T171 127Q171 192 212 251T323 347T471 384Q506 384 534 377Q542 375 551 372T567 368Q573 367 585 379Q597 391 604 391Q612 391 628 388T643 380Q615 340 588 286L518 143Q509 123 509 111Q509 90 534 90Q581 90 620 120T683 200T706 307Q706
386 651 432T497 479Q398 479 303 428T148 293T88 113Q88 50 117 3T198 -70T320 -96Q387 -96 449 -79T563 -30Q592 -12 605 -12Q611 -12 615 -16T619 -28Q618 -45 570 -76T447 -130T296 -154Q213 -154 149 -124ZM348 76T365 84T399 105Q411 114 420 125T439 156L493
264Q504 286 504 301Q504 322 489 332T439 342Q395 342 358 312T298 235T275 147Q275 116 291 96T332 76Q348 76 365 84Z" />
<glyph unicode="A" glyph-name="A" horiz-adv-x="747" d="M-55 -5T-60 -2T-66 8Q-66 28 -37 33Q-1 41 36 58T95 100Q234 256 374 421L476 539Q496 562 515 595Q517 598 523 607T532 620T539 624Q593 624 627 645Q633 649 645 657T666 669T680 673Q692 673 692
646Q692 637 688 613L589 114Q587 98 587 93Q587 69 601 55T647 32Q662 28 668 25T674 12Q674 5 664 1T643 -3Q625 -3 571 -1Q529 2 491 2Q471 2 417 0Q361 -2 342 -2Q333 -2 328 1T323 12Q323 20 331 26T350 34Q388 42 407 56T433 100L463 221L464 227Q464 240
447 240H295Q279 240 266 222L197 133Q167 96 167 73Q167 45 213 34Q238 28 238 12Q237 6 228 2T206 -2L149 -1Q111 1 91 1Q71 1 54 0T24 -2Q-10 -5 -43 -5Q-55 -5 -60 -2ZM461 285Q469 285 473 288T479 299L527 518Q529 525 529 530T525 536Q520 536 512 528L329
304Q321 294 321 291Q321 285 341 285H461Z" />
<glyph unicode="B" glyph-name="B" horiz-adv-x="627" d="M-43 -5T-43 7Q-43 14 -35 20T-14 31Q26 42 42 54T69 96L210 551Q216 568 216 580Q216 596 205 604T170 619Q152 623 152 634Q152 642 160 648T180 654Q213 654 251 650Q259 650 275 649T308 647Q337 647
365 650Q409 654 448 654Q540 654 589 621T638 526Q638 468 584 423T455 364Q450 363 449 359T452 354Q514 332 548 295T582 197Q582 93 493 45T258 -4Q220 -4 185 -1Q139 1 115 1Q93 1 76 0T45 -2Q7 -5 -26 -5Q-43 -5 -43 7ZM360 364T377 368T419 382Q458 410
481 449T505 536Q505 572 482 599T425 626Q403 626 392 619T374 593L313 389Q312 386 312 380Q312 364 340 364Q360 364 377 368ZM308 33T345 63T406 138T429 226Q429 272 404 301T333 331Q312 331 302 326T287 308L223 101Q220 89 220 75Q220 60 225 52Q242 28
268 28Q308 33 345 63Z" />
<glyph unicode="C" glyph-name="C" horiz-adv-x="665" d="M247 -14T189 20T96 116T61 251Q61 368 121 462T283 610T508 664Q561 664 617 644Q622 642 639 637T671 631Q685 631 696 637Q713 647 725 647Q737 647 737 637Q737 630 733 625Q715 602 692 550T658 458Q653
436 635 436Q626 436 622 449T619 483Q622 531 597 570Q581 596 557 612T506 628Q424 628 357 560T252 389T214 186Q214 105 251 65T354 25Q412 25 463 61T566 166Q569 171 574 178T583 188T592 192Q600 192 604 185T606 166Q594 118 565 55T524 -9Q515 -9 509
-5T499 2Q485 11 463 11Q451 11 434 6T409 -1Q359 -14 317 -14Q247 -14 189 20Z" />
<glyph unicode="D" glyph-name="D" horiz-adv-x="733" d="M257 -7T177 -1Q119 3 109 3Q78 3 42 0Q28 -1 8 -2T-36 -3Q-43 -3 -47 1T-51 11Q-44 29 -23 32Q19 39 36 52T63 97L206 553Q210 571 210 576Q210 593 197 602T152 619Q134 624 138 640Q140 646 147 650T162
655Q200 655 240 652Q290 650 309 650Q323 650 361 652Q409 654 450 654Q541 654 607 619T708 522T743 384Q743 281 685 191T526 47T306 -7Q257 -7 177 -1ZM376 30T440 84T544 225T584 401Q584 616 435 616Q401 616 385 606T362 572L227 123Q222 109 222 93Q222
60 246 45T306 30Q376 30 440 84Z" />
<glyph unicode="E" glyph-name="E" horiz-adv-x="573" d="M-47 -5T-51 -1T-54 10Q-53 16 -46 22T-26 31Q15 41 32 53T58 96L198 551Q204 569 204 581Q204 597 193 605T156 619Q134 625 137 640Q143 655 179 655L228 653Q278 649 304 649L469 650Q535 650 566 656T604
662Q611 662 616 657T622 642Q622 634 612 594Q596 542 595 514Q595 505 590 500T579 494Q574 494 570 498T564 512Q558 570 545 592T494 615H416Q390 615 375 600T347 543L299 379Q297 371 297 368Q297 354 317 354H408Q433 355 451 369T486 412Q491 421 499 426T514
432Q522 432 522 421Q522 416 519 408Q496 353 489 329Q480 301 468 248Q461 221 450 221Q443 221 438 228T434 246Q437 313 402 313H302Q276 313 270 289L219 114Q213 95 213 80Q213 57 227 47T270 36H357Q398 36 437 62Q455 74 469 93T511 155Q515 161 519 164T529
168Q535 168 537 163T539 145Q539 128 521 82T485 9Q475 -4 456 -4L367 -3Q130 0 102 0Q70 0 32 -3Q-18 -5 -38 -5Q-47 -5 -51 -1Z" />
<glyph unicode="F" glyph-name="F" horiz-adv-x="535" d="M-33 -3T-37 1T-40 11Q-36 27 -13 32Q28 40 45 53T72 97L213 551Q218 566 218 581Q218 596 209 604T177 618Q151 625 156 640Q158 646 166 650T188 655Q202 655 246 653Q283 650 318 650H478Q538 650 607
661Q624 664 631 664Q639 664 644 660T648 645L642 621L634 594Q616 540 611 506Q609 497 605 492T595 486Q583 486 583 504Q581 559 565 584Q546 616 504 616L437 617Q413 618 396 606T372 572L342 475Q318 395 313 381Q311 375 311 372Q311 351 352 351H399Q459
351 495 407Q501 416 508 421T522 426Q525 426 527 423T530 414Q530 412 528 404Q494 324 481 258Q475 232 463 232Q456 232 452 239T447 256Q447 286 439 298T412 311H321Q288 311 280 283L226 101Q222 88 222 75Q222 55 238 46T293 32Q312 30 307 12Q303 -3 284
-3Q246 -3 199 0L121 2Q101 2 51 0Q12 -3 -25 -3Q-33 -3 -37 1Z" />
<glyph unicode="G" glyph-name="G" horiz-adv-x="726" d="M257 -14T194 17T96 105T60 242Q60 293 74 343Q95 431 157 504T314 621T519 664Q549 664 573 659T626 644Q630 643 642 639T663 633T679 631Q693 631 704 637Q721 647 732 647Q745 647 745 637Q745 632
740 625Q722 601 700 553T667 465Q662 442 644 442Q623 442 626 483Q627 491 627 507Q627 555 607 583Q593 603 567 616T511 629Q448 629 390 591T286 476T211 292Q200 248 200 212Q200 156 221 113T279 45T365 21Q401 21 428 44T466 102L499 214Q501 222 501 226Q501
243 483 251Q463 259 424 267Q414 270 408 275T404 289Q406 296 414 300T431 304Q465 304 510 299Q564 295 583 295Q599 295 612 296T635 298Q672 303 714 303Q732 303 727 288Q725 280 719 275T701 267Q671 260 658 251T633 220Q620 194 607 159T594 113Q594 102
598 94T614 74Q604 53 555 33T444 -1T339 -14Q257 -14 194 17Z" />
<glyph unicode="H" glyph-name="H" horiz-adv-x="780" d="M-34 -3T-38 1T-41 11Q-37 27 -14 32Q23 41 39 53T64 93L206 551Q212 571 212 582Q212 596 202 604T168 619Q149 623 154 640Q155 646 163 650T178 655Q213 655 249 652Q293 650 312 650Q330 650 382 652Q434
654 458 654Q475 654 472 640Q469 631 463 627T444 619Q401 607 384 594T358 550L302 366Q301 364 301 360Q301 352 313 352H559Q572 352 576 367L632 550Q637 568 637 577Q637 592 627 600T589 619Q579 622 576 626T575 640Q580 654 598 654Q621 654 673 652Q723
650 742 650Q759 650 805 652Q841 655 877 655Q885 655 889 651T892 640Q888 624 864 619Q827 610 812 597T786 551L644 94Q639 77 639 69Q639 54 649 46T684 32Q704 28 699 11Q697 5 690 1T674 -3Q642 -3 607 0Q559 2 541 2Q523 2 471 0Q431 -3 394 -3Q377 -3
381 12Q383 20 389 24T408 32Q449 43 466 56T493 98L551 290L553 299Q553 306 545 306H297Q282 306 277 290L219 99Q215 86 215 75Q215 59 225 51T265 32Q275 29 278 25T279 12Q276 -3 257 -3Q221 -3 180 0Q130 2 112 2Q93 2 43 0Q7 -3 -27 -3Q-34 -3 -38 1Z" />
<glyph unicode="I" glyph-name="I" horiz-adv-x="378" d="M-34 -3T-38 1T-41 11Q-37 27 -14 32Q28 41 46 54T73 97L214 551Q219 571 219 580Q219 595 208 603T169 619Q149 624 155 640Q156 646 163 650T179 655Q216 655 253 652Q301 650 320 650Q339 650 389 652Q443
654 467 654Q485 654 480 640Q478 631 472 627T452 619Q408 607 392 594T366 550L238 134Q225 94 225 73Q225 57 234 50T266 36Q288 31 294 26T297 12Q294 -3 275 -3Q238 -3 194 0Q138 2 120 2Q100 2 50 0Q11 -3 -26 -3Q-34 -3 -38 1Z" />
<glyph unicode="J" glyph-name="J" horiz-adv-x="378" d="M-198 -200T-200 -143Q-200 -114 -189 -95T-162 -75Q-151 -75 -137 -85T-100 -118Q-75 -140 -60 -150T-32 -161Q-8 -161 12 -121T63 20L227 551Q232 571 232 580Q232 595 221 603T183 619Q165 624 169
640Q170 646 177 650T192 655Q230 655 267 652Q315 650 334 650Q351 650 401 652Q455 654 478 654Q494 654 491 640Q489 631 483 627T464 619Q421 608 406 595T380 550L231 68Q197 -47 103 -126Q64 -161 20 -180T-70 -200Q-198 -200 -200 -143Z" />
<glyph unicode="K" glyph-name="K" horiz-adv-x="762" d="M-28 -6T-35 -1T-42 11Q-36 28 -9 32Q30 39 46 52T72 98L212 551Q217 571 217 580Q217 595 206 603T168 619Q152 622 152 635Q152 643 161 649T185 655Q203 655 249 653Q285 650 318 650Q335 650 385 652Q439
654 462 654Q478 654 478 643Q478 633 470 628T448 619Q405 608 390 595T365 550L309 370Q308 367 308 363Q308 358 311 356T324 354Q363 354 410 401L569 551Q584 566 590 574T597 589Q597 597 586 604T560 614Q548 617 543 621T538 634Q538 642 545 646T564 651H639L732
652Q796 654 836 654Q857 654 857 640Q857 632 846 627T821 619Q770 615 733 600T660 557Q531 454 451 377Q440 364 440 357Q440 352 443 347Q525 175 599 93Q618 71 638 59T685 36Q701 30 709 26T718 13Q718 -5 681 -5Q660 -5 637 -4T601 -2Q567 1 526 1L466 0Q426
-2 403 -2Q394 -2 387 2T380 13Q380 30 412 36Q435 41 435 60Q435 72 425 96L332 286Q324 303 316 312T301 321Q292 321 289 309L228 100Q222 82 222 70Q222 56 231 48T266 32Q277 28 282 25T287 14Q287 6 276 1T253 -4Q208 -4 171 1Q162 2 149 3T120 4Q103 4 67
0Q21 -6 -18 -6Q-28 -6 -35 -1Z" />
<glyph unicode="L" glyph-name="L" horiz-adv-x="579" d="M-38 -5T-38 7Q-38 13 -31 20T-10 31Q30 42 47 54T75 96L216 553Q221 573 221 582Q221 596 211 603T172 619Q153 623 158 640Q159 646 166 650T181 655Q217 655 256 652Q302 650 322 650Q342 650 394 652Q450
654 472 654Q490 654 485 640Q483 631 477 627T458 619Q413 608 396 596T369 553L245 147Q232 105 232 79Q232 57 242 48T273 38H309Q389 38 443 74Q489 108 525 178Q533 196 546 196Q551 196 554 191T557 178Q557 151 536 95T496 13Q491 4 486 0T473 -5L353 -3Q128
0 119 0Q87 0 49 -3Q-1 -5 -22 -5Q-38 -5 -38 7Z" />
<glyph unicode="M" glyph-name="M" horiz-adv-x="988" d="M352 -14T348 -8T344 9Q344 188 326 460Q326 469 320 469Q312 469 304 453Q223 294 176 164Q157 113 157 82Q157 41 193 33Q218 27 215 12Q214 6 204 2T185 -2Q156 -2 126 0L82 1Q37 1 -7 -3L-28 -4Q-51
-4 -48 11Q-46 17 -40 20T-26 25T-14 29Q14 38 32 49T70 85T114 158L283 501Q304 545 304 564Q304 586 284 599T218 624Q202 628 197 631T191 643Q191 658 227 658L314 656Q371 653 419 653Q442 653 450 640T458 599L457 555L471 217Q472 204 479 204Q484 204 492
212Q563 285 633 375T781 573L822 637Q831 650 843 650H890Q931 650 974 655Q986 656 1000 657T1028 658Q1053 658 1053 644Q1053 627 1001 614Q965 606 946 586T916 525Q866 336 820 108Q818 94 818 89Q818 46 870 33Q881 29 885 25T887 12Q886 6 879 2T862 -2Q825
-2 783 1Q729 3 709 3Q677 3 639 0Q626 -1 608 -2T565 -3Q556 -3 551 1T547 11Q553 28 577 33Q618 42 635 55T662 98Q687 184 738 383Q742 402 752 440V443Q752 446 750 446Q747 446 741 438L484 142L384 6Q378 -2 371 -8T358 -14Q352 -14 348 -8Z" />
<glyph unicode="N" glyph-name="N" horiz-adv-x="781" d="M-3 -3T-9 1T-14 11Q-9 24 17 31Q49 39 69 58T102 111L251 513Q261 539 261 560Q261 588 240 603T173 621Q144 624 144 642Q144 648 154 653T176 658L256 656Q310 653 361 653Q385 653 395 632L593 191Q595
187 598 183T605 178Q613 178 617 193Q629 225 658 324T702 500Q707 528 707 544Q707 579 688 596T624 621Q606 624 606 635Q606 641 614 646T633 651Q669 651 711 647L747 645Q765 645 778 646T800 648Q840 652 869 652Q889 652 889 638Q889 631 879 627T854 620Q828
615 812 606T784 576T758 514Q706 350 645 150Q637 124 637 111Q637 93 651 68Q663 46 675 34Q680 30 687 25T694 14Q694 5 690 3T675 0Q643 0 607 -4Q585 -7 561 -7Q535 -7 522 5T497 46Q494 54 488 69T470 110Q321 469 308 491Q306 495 303 499T298 504Q290 504
283 482Q254 409 216 295T162 110Q159 95 159 84Q159 63 173 52T221 32Q245 26 242 12Q241 5 232 1T213 -3Q180 -3 152 -1Q130 1 116 1Q94 1 25 -2L5 -3Q-3 -3 -9 1Z" />
<glyph unicode="O" glyph-name="O" horiz-adv-x="692" d="M226 -14T172 18T88 109T58 242Q58 350 113 447T262 604T470 664Q538 664 592 632T676 541T707 408Q707 301 652 204T502 46T294 -14Q226 -14 172 18ZM362 24T425 98T528 278T568 468Q568 537 543 583T468
630Q401 630 338 555T236 373T196 181Q196 112 220 68T294 24Q362 24 425 98Z" />
<glyph unicode="P" glyph-name="P" horiz-adv-x="624" d="M-25 -3T-31 1T-37 11Q-37 19 -28 24T-5 32Q37 41 54 54T81 98L221 548Q226 563 226 577Q226 595 214 605T175 620Q163 622 157 627T152 640Q154 646 164 650T184 655Q201 655 245 653Q299 649 321 650Q327
650 345 652Q417 657 449 657Q516 657 565 634T641 570T668 474Q668 405 629 351T521 265T370 234Q346 234 336 239T325 255Q325 266 347 270Q358 272 368 274T389 278Q432 286 464 316T512 388T529 475Q529 555 501 586T424 617Q413 617 406 612T391 591T372 540L236
100Q232 88 232 77Q232 59 246 50T295 32Q318 27 318 12Q318 5 308 1T284 -3Q245 -3 202 0L129 2Q109 2 59 0Q19 -3 -18 -3Q-25 -3 -31 1Z" />
<glyph unicode="Q" glyph-name="Q" horiz-adv-x="701" d="M738 -125T748 -125Q754 -125 757 -129T760 -140Q760 -147 757 -153Q746 -181 715 -212T644 -265T566 -286Q516 -286 466 -266T336 -203Q271 -168 229 -151T149 -133Q116 -133 93 -142L74 -151Q54 -162
46 -162Q38 -162 34 -158T29 -145Q29 -128 69 -108T190 -56Q259 -28 283 -16L287 -14Q221 -12 169 21T87 112T58 242Q58 350 112 447T261 604T470 664Q538 664 592 632T677 541T708 408Q708 297 641 199T458 29Q405 -4 366 -24T277 -63H287Q320 -63 364 -79T464
-125L486 -136Q544 -165 576 -178T633 -192Q689 -192 725 -142Q738 -125 748 -125ZM345 22Q460 103 514 217T569 468Q569 623 467 623Q399 623 336 552T235 376T196 181Q196 111 226 67T331 22H345Z" />
<glyph unicode="R" glyph-name="R" horiz-adv-x="758" d="M-21 -3T-26 1T-30 11Q-26 27 -2 32Q39 41 57 54T85 98L226 552Q232 572 232 583Q232 599 221 606T181 619Q153 624 153 639Q153 646 165 650T190 655Q220 655 264 651Q273 650 290 649T322 648Q341 648
379 652Q434 657 462 657Q557 657 607 616T657 508Q657 441 606 393T482 328Q472 323 477 315Q501 256 543 174L567 125Q604 48 667 47Q703 45 703 25Q703 9 676 4T573 -1Q502 -1 467 22T416 88Q380 183 357 265Q345 300 318 300Q301 300 294 280L238 100Q234 88
234 76Q234 58 247 49T292 32Q302 30 306 26T308 12Q302 -3 285 -3Q247 -3 203 0Q149 2 132 2Q112 2 62 0Q23 -3 -14 -3Q-21 -3 -26 1ZM396 326T433 349T491 417T513 521Q513 564 491 593T434 623Q420 623 412 618T396 595T375 536L322 364Q319 355 319 348Q319
326 350 326Q396 326 433 349Z" />
<glyph unicode="S" glyph-name="S" horiz-adv-x="526" d="M141 -14T92 6Q61 19 56 19Q47 19 31 12Q11 0 7 0Q1 0 -7 8T-16 23Q-16 29 -4 58Q29 136 36 187Q39 205 44 212T62 220Q75 220 78 207T81 157Q81 103 113 65T204 26Q263 26 297 57T331 138Q331 172 312
200T232 283Q180 328 157 369T134 468Q134 523 164 568T249 638T372 664Q426 664 485 645Q489 644 508 638T541 632Q555 632 566 638Q582 647 593 647Q606 647 606 637Q606 630 602 625Q585 602 566 556T535 467Q528 442 512 442Q502 442 498 452T494 483Q494 548
462 587T376 626Q325 626 297 594T268 521Q268 496 276 477T304 437T365 380Q423 331 446 289T469 196Q469 143 439 95T351 16T219 -14Q141 -14 92 6Z" />
<glyph unicode="T" glyph-name="T" horiz-adv-x="676" d="M123 -3T118 1T113 11Q117 27 144 32Q186 41 206 54T235 98L366 523Q382 577 382 595Q382 605 378 609T364 613H317Q284 613 251 595T191 550Q188 547 174 532T145 507T122 497Q115 497 113 501T112 515Q117
531 126 542Q153 574 168 602T199 669Q208 694 226 694Q237 694 250 684T267 670Q269 669 279 662T310 652T362 649H639Q693 649 716 653T752 665Q763 669 781 681Q783 682 792 687T808 693Q821 693 816 678Q814 668 808 657Q770 593 750 526Q745 509 739 501T725
493Q716 493 712 501T708 529Q706 572 690 592T633 613H583Q567 613 557 606T539 581T518 525L387 99Q383 88 383 77Q383 60 396 51T438 32Q448 29 452 25T455 12Q454 5 447 1T431 -3Q394 -3 353 0Q299 2 281 2Q261 2 209 0Q169 -3 131 -3Q123 -3 118 1Z" />
<glyph unicode="U" glyph-name="U" horiz-adv-x="712" d="M211 -14T151 36T91 171Q91 208 105 255L193 538Q197 553 197 569Q197 609 167 618Q141 627 145 640Q146 647 155 651T177 655Q209 655 242 652Q286 650 304 650Q321 650 371 652Q419 654 439 654Q464
654 461 639Q459 632 450 627T425 617Q410 612 406 610Q364 594 344 531L250 237Q241 210 241 179Q241 125 275 93T361 60Q439 60 499 117T587 262Q628 386 646 450Q662 515 662 550Q662 577 654 591T630 615Q626 618 615 622T599 629T596 639Q599 653 629 653L688
652Q701 651 730 651Q749 651 773 653Q797 655 817 655Q842 655 838 640Q834 627 804 619Q768 610 751 592T718 529Q700 477 679 411T647 311Q644 301 630 256Q589 127 514 57T315 -14Q211 -14 151 36Z" />
<glyph unicode="V" glyph-name="V" horiz-adv-x="726" d="M143 -17T143 41Q143 62 152 111Q202 369 222 553Q223 558 223 567Q223 588 214 599T182 616Q177 618 167 621T152 629T148 639Q148 654 181 654Q201 654 249 652Q299 650 319 650Q338 650 392 652Q446
654 467 654Q477 654 483 650T489 640Q487 632 477 627T454 619Q418 611 404 599T384 555L313 170Q312 165 312 162T316 159Q318 159 320 163T327 171L576 469Q638 542 638 580Q638 607 603 619Q591 621 585 626T580 640Q581 646 591 650T613 654L665 653Q697 651
717 651Q745 651 769 654Q777 654 793 655T823 657Q835 657 844 653T853 641Q853 634 846 631T830 625T815 620Q754 604 699 541L337 129Q210 -17 184 -17Q143 -17 143 41Z" />
<glyph unicode="W" glyph-name="W" horiz-adv-x="1111" d="M178 -17T169 5T159 64Q159 80 163 114Q209 405 225 548Q226 554 226 565Q226 588 217 598T183 616Q177 618 167 621T152 628T148 639Q148 654 182 654Q201 654 245 652Q291 650 312 650Q332 650 390
652Q448 654 468 654Q478 654 485 650T491 640Q486 625 455 618Q418 610 404 598T385 552L356 390Q333 268 322 199Q321 196 321 191Q321 183 325 183Q330 183 340 195L576 479Q598 507 609 527T621 565Q621 587 612 598T579 616Q573 618 563 621T548 629T543 639Q543
654 577 654Q597 654 645 652Q693 650 712 650Q731 650 787 652Q832 655 868 655Q893 655 893 641Q893 625 859 619Q820 611 804 598T782 554L719 197L718 190Q718 184 721 184Q727 184 738 198L951 470Q1008 544 1008 581Q1008 609 977 619Q966 623 960 626T954
637Q954 645 964 649T987 654L1045 653Q1083 651 1102 651Q1116 651 1132 652T1156 654Q1180 657 1209 657Q1221 657 1229 653T1238 641Q1238 632 1228 628T1200 620Q1169 613 1137 592T1079 541L727 133L689 87Q647 35 624 11T586 -14Q565 -14 556 0T546 43Q546
64 553 111L577 238Q584 280 597 350T617 463L341 131Q326 113 306 85Q268 35 243 9T197 -17Q178 -17 169 5Z" />
<glyph unicode="X" glyph-name="X" horiz-adv-x="713" d="M-21 -7T-30 -3T-40 9Q-40 18 -33 22T-9 30Q18 37 47 57T120 128L277 309Q288 321 292 330T297 350Q297 359 292 376L240 550Q229 584 209 600T161 619Q150 620 144 625T137 640Q137 646 143 650T159 654Q181
654 206 653T244 651Q283 648 321 648Q336 648 356 649T388 651Q418 654 450 654Q460 654 468 650T477 640Q477 632 468 627T447 619Q422 614 410 602T397 570Q397 557 401 544L445 395Q450 381 458 381Q466 381 474 392L562 504Q607 562 607 591Q607 613 577 618Q566
621 557 626T548 640Q548 646 556 649T577 653L619 652Q647 650 663 650Q677 650 691 651T713 653Q745 657 765 657Q778 657 787 653T796 641Q796 633 789 629T766 621Q742 614 713 597T665 558L490 360Q472 339 472 321Q472 310 476 298L541 95Q556 50 613 34Q625
31 636 25T647 9Q647 3 640 -1T621 -5Q593 -5 564 -4T523 -2Q483 1 441 1Q420 1 382 -1L325 -2Q315 -2 307 2T298 13Q298 27 328 34Q356 41 369 51T382 79Q382 87 379 97L327 281Q323 293 314 293Q307 293 299 284L186 133Q157 94 157 69Q157 41 200 32Q229 24
229 10Q229 4 220 1T200 -3Q181 -3 151 -1L103 0Q82 0 48 -4Q39 -5 23 -6T-8 -7Q-21 -7 -30 -3Z" />
<glyph unicode="Y" glyph-name="Y" horiz-adv-x="652" d="M109 -6T103 -3T97 7Q97 25 133 31Q172 38 193 57T224 110L268 250Q277 279 277 300Q277 322 268 351L208 553Q201 578 190 593T160 614Q143 620 136 624T129 636Q129 644 137 649T156 654Q197 654 233
651Q244 651 267 650T310 648Q335 648 364 651Q374 651 394 652T430 654Q440 654 446 650T452 640Q451 632 441 627T418 619Q381 611 367 600T352 568Q352 558 355 546L397 364Q403 338 412 338Q418 338 436 358Q450 375 526 470L575 533Q602 565 602 586Q602 611
560 618Q549 621 542 626T536 640Q538 646 547 649T569 653Q584 653 612 651Q644 649 664 649Q685 649 721 653Q730 654 743 655T773 656Q786 656 793 652T797 640Q795 632 788 629T765 621Q733 612 702 594T652 555Q560 449 477 357Q443 320 423 258L378 110Q371
86 371 76Q371 59 382 49T420 31Q434 27 440 23T443 11Q442 4 434 0T413 -5Q390 -5 336 -1Q321 0 304 1T267 2Q247 2 197 -2Q143 -6 120 -6Q109 -6 103 -3Z" />
<glyph unicode="Z" glyph-name="Z" horiz-adv-x="641" d="M441 -3Q413 -3 356 -2T208 1Q113 1 -27 -6Q-36 -7 -36 7Q-36 18 -32 22Q8 73 50 119Q136 214 243 338Q390 506 471 595Q477 603 477 608Q477 615 463 615Q444 616 400 614T326 609Q284 603 249 583T181
522Q167 504 159 497T138 489Q124 489 128 507Q133 523 138 534Q158 569 177 619L185 638Q191 654 197 660T216 667Q237 667 275 660Q326 650 364 649H477Q530 649 589 652Q657 654 679 654Q686 654 690 644T690 629L594 522Q472 388 291 178L196 69Q186 57 186
51Q186 42 202 42Q278 42 322 43Q413 43 471 69Q504 83 531 105T582 161Q594 174 604 174Q610 174 613 170T615 158Q608 134 583 92T553 41L537 15Q527 -4 503 -4L441 -3Z" />
<glyph unicode="[" glyph-name="bracketleft" horiz-adv-x="374" d="M-8 -201T-14 -199T-21 -187Q-21 -176 -12 -150L233 644Q242 671 248 682T262 697T289 701L474 700Q489 700 489 688Q489 674 477 666T452 658L382 653Q360 652 344 635T320 597Q175 133 105
-97Q102 -108 102 -117Q102 -131 109 -140T133 -151L200 -157Q210 -158 217 -163T221 -180Q218 -190 211 -195T195 -200L11 -201Q-8 -201 -14 -199Z" />
<glyph unicode="\" glyph-name="backslash" horiz-adv-x="398" d="M240 -64T238 -43L150 648Q149 655 157 662T177 669Q194 668 203 664T215 646L303 -45Q304 -52 296 -58T277 -64Q240 -64 238 -43Z" />
<glyph unicode="]" glyph-name="bracketright" horiz-adv-x="375" d="M408 703T414 701T421 689Q421 678 412 652L167 -142Q158 -169 152 -180T138 -195T111 -199L-74 -198Q-89 -198 -89 -186Q-89 -172 -77 -164T-52 -156L18 -151Q40 -150 56 -133T80 -95Q225
369 295 599Q298 610 298 619Q298 633 291 642T267 653L200 659Q190 660 183 665T179 682Q182 692 189 697T205 702L389 703Q408 703 414 701Z" />
<glyph unicode="^" glyph-name="asciicircum" horiz-adv-x="515" d="M63 250T57 253T51 265Q51 269 53 273L270 608H277L496 273Q498 269 498 265Q498 259 493 255T477 250Q463 250 451 259T429 283L278 503Q274 507 272 507T268 503L121 283Q111 268 99 259T72
250Q63 250 57 253Z" />
<glyph unicode="_" glyph-name="underscore" horiz-adv-x="583" d="M461 -128T466 -132T471 -143Q471 -156 458 -171T430 -187H-106Q-112 -187 -115 -183T-118 -173Q-118 -163 -106 -146T-80 -128H453Q461 -128 466 -132Z" />
<glyph unicode="`" glyph-name="grave" horiz-adv-x="237" d="M288 470T271 487L164 607Q141 632 141 646Q141 659 163 677T200 695Q211 695 219 687T237 660L310 502Q314 494 314 484Q314 470 301 470Q288 470 271 487Z" />
<glyph unicode="a" glyph-name="a" horiz-adv-x="541" d="M17 -14T-3 3T-24 37Q-24 81 17 144T164 323Q208 370 245 399T302 428Q328 428 361 402Q369 393 370 393H372Q374 393 375 395T377 400Q390 425 392 432Q398 443 417 443Q439 443 465 428T491 400Q491
396 489 390L389 118Q386 111 386 106Q386 92 400 92Q411 92 434 109T483 152Q486 155 488 155Q493 155 496 151T499 139Q499 125 481 101T432 51Q395 21 360 4T302 -14Q279 -14 258 4T236 41Q236 47 241 64Q243 72 251 90T263 119L275 147Q276 148 276 151Q276
155 274 156T269 155Q191 67 136 27T38 -14Q17 -14 -3 3ZM160 92T197 124T272 203Q304 242 323 272T342 316Q342 325 322 342Q299 360 285 360Q270 360 243 342T192 300Q160 268 137 217T113 127Q113 110 121 101T143 92Q160 92 197 124Z" />
<glyph unicode="b" glyph-name="b" horiz-adv-x="526" d="M124 -13T93 15T61 95Q61 138 79 189L189 539Q196 563 198 575T201 599Q201 609 194 615T167 628Q155 633 150 636T145 644Q145 650 150 654T172 665Q210 678 267 692T335 707Q361 707 361 694Q361 673
351 653Q324 594 293 506T214 263Q213 261 213 257Q213 254 215 254Q216 254 221 260Q279 341 337 387T440 433Q477 433 502 409T527 349Q527 269 474 184T339 43T180 -13Q124 -13 93 15ZM228 26T258 53T314 118Q347 170 373 232T400 325Q400 338 393 346T373 355Q350
355 316 327T244 245Q209 196 188 154T167 89Q167 67 180 47T210 26Q228 26 258 53Z" />
<glyph unicode="c" glyph-name="c" horiz-adv-x="366" d="M109 -14T78 4T28 54T11 122Q13 203 49 274T147 389T282 433Q320 433 344 416T368 373Q368 354 355 336T327 317Q319 317 314 322T297 347Q286 366 274 378T249 390Q222 390 195 357T151 273T133 171Q133
136 152 116T203 96Q256 96 294 142Q302 154 313 154Q317 154 320 151T323 143Q323 111 296 74T226 11T145 -14Q109 -14 78 4Z" />
<glyph unicode="d" glyph-name="d" horiz-adv-x="563" d="M43 -14T21 10T-2 70Q-2 125 29 194T115 328Q159 380 201 407T280 434Q298 434 314 427T344 410T364 398Q368 396 372 394T381 391Q385 391 388 400L435 550Q436 555 438 560T441 571Q450 599 450 600T449
605Q449 624 409 640Q387 647 387 655Q387 662 393 666T417 677Q442 684 503 695T580 707Q605 707 605 693Q605 680 596 653L415 116Q412 107 412 101Q412 91 419 91Q429 91 456 110T507 154Q511 158 512 158Q517 158 520 154T524 143Q524 119 488 81T405 15T328
-14Q305 -14 283 4T261 42Q261 47 266 65Q273 82 282 102T298 136T303 142Q304 144 304 147Q304 151 301 151Q297 151 294 146Q226 64 174 25T77 -14Q43 -14 21 10ZM196 84T241 127T320 228T353 329Q353 355 342 369T310 384Q281 384 238 337T164 225T132 117Q132
84 163 84Q196 84 241 127Z" />
<glyph unicode="e" glyph-name="e" horiz-adv-x="380" d="M109 -15T79 2T28 47T7 107Q7 188 46 263T147 386T276 433Q331 433 358 412T386 359Q386 299 320 267T151 212Q146 211 144 209T140 202Q136 187 134 170Q133 133 153 108T210 83Q237 83 259 96T307 136Q317
147 324 147Q334 147 334 137Q334 127 331 123Q298 62 250 24T136 -15Q109 -15 79 2ZM213 262T249 287T289 364Q289 377 282 387T261 397Q238 397 215 376T174 322T151 253V251Q151 245 158 247Q213 262 249 287Z" />
<glyph unicode="f" glyph-name="f" horiz-adv-x="383" d="M-134 -291T-167 -269T-201 -215Q-201 -191 -185 -175T-149 -158Q-141 -158 -131 -169T-107 -201Q-93 -222 -82 -232T-55 -243Q-34 -243 -18 -217T13 -138L149 346Q150 349 150 354Q150 364 135 364L75
363Q65 363 61 367T57 380Q57 389 67 401T91 415L154 418Q159 418 161 421T166 432L174 457Q202 543 246 599T340 680T439 706Q484 706 515 685T546 631Q546 604 533 583T500 561Q485 561 478 572T460 614Q450 638 439 651T410 665Q384 665 362 629T321 528Q313
498 302 452L299 433V430Q299 418 315 418Q333 418 365 420L413 421Q417 421 420 417T423 407Q423 398 413 383T396 368L315 365Q297 364 289 359T277 341L223 148Q209 97 192 35T154 -99Q143 -142 103 -187T14 -261T-68 -291Q-134 -291 -167 -269Z" />
<glyph unicode="g" glyph-name="g" horiz-adv-x="468" d="M60 -290T9 -277T-72 -239T-102 -186Q-102 -114 89 -63Q94 -61 94 -59T91 -54Q68 -41 53 -23T37 15Q37 35 57 51T118 90Q131 98 131 103Q131 106 121 111Q90 126 67 154T44 219Q44 264 71 314T149 398T269
433Q296 433 336 416L355 408Q359 407 369 403T386 398Q409 398 438 407Q443 408 456 411T480 414Q489 414 497 408T506 387Q506 369 498 357T479 345Q471 345 463 346T448 348Q424 352 411 352Q397 352 400 341Q403 328 403 314Q403 260 375 209T298 126T191 94L169
95Q164 95 158 93Q153 90 151 85T148 76Q148 65 157 54T187 29Q206 16 258 -16Q308 -46 330 -61Q380 -95 380 -134Q380 -172 342 -208T243 -267T121 -290Q60 -290 9 -277ZM201 131T232 172T286 269T308 360Q308 378 300 389T281 401Q257 401 226 360T173 265T151
177Q151 156 157 146T174 134Q201 131 232 172ZM205 -254T236 -235T268 -189Q268 -178 261 -166T240 -145Q216 -129 188 -112T143 -87Q133 -83 128 -83Q122 -83 108 -87Q58 -101 35 -121T11 -174Q11 -208 50 -231T164 -254Q205 -254 236 -235Z" />
<glyph unicode="h" glyph-name="h" horiz-adv-x="563" d="M83 -15T64 -1T45 33Q45 60 59 105L193 539Q204 578 204 596Q204 608 194 615T165 629Q155 633 151 636T146 644Q146 650 150 654T172 665Q206 676 263 691T334 707Q345 707 352 705T360 694Q360 677 351
654L212 229L211 225Q211 221 214 221Q219 221 222 227Q280 319 345 376T468 434Q507 434 528 409T550 346Q550 272 522 203T449 76Q440 64 409 42T345 3T298 -14Q279 -14 258 2T237 32Q237 41 249 60T272 80Q280 80 285 77T294 70T302 62Q305 60 311 55T323 46T335
43Q351 43 370 93T403 212T417 324Q417 361 391 361Q368 361 331 309T227 147Q171 56 163 43Q127 -15 99 -15Q83 -15 64 -1Z" />
<glyph unicode="i" glyph-name="i" horiz-adv-x="332" d="M63 -14T44 3T25 40Q25 51 30 61Q48 101 69 152T99 225L133 307Q135 313 128 313Q118 313 104 306T65 284Q55 279 51 279Q37 279 37 287Q37 300 71 330T149 390T222 430Q230 432 234 432Q254 432 270 416T280
384L168 108Q165 101 165 93Q165 90 167 88T172 85Q184 85 218 109T274 155Q277 158 278 158Q283 158 287 154T291 144Q291 121 255 83T170 15T86 -14Q63 -14 44 3ZM247 760T232 777T217 817Q217 851 241 877T301 903Q324 903 337 885T351 842Q351 809 327 785T269
760Q247 760 232 777Z" />
<glyph unicode="j" glyph-name="j" horiz-adv-x="311" d="M-178 -290T-202 -274T-225 -236Q-223 -212 -205 -195T-172 -177Q-158 -177 -149 -185T-126 -211Q-115 -224 -106 -230T-83 -237Q-59 -237 -40 -206T0 -116L124 267Q130 287 130 296Q130 311 117 311Q106
311 93 306T65 294Q58 291 52 291Q40 291 40 302Q40 308 43 312T51 320T60 327Q110 368 236 419L265 431Q271 433 273 433Q286 433 296 422T303 399Q300 388 287 359Q283 348 274 326T259 286L145 -62Q125 -122 74 -174T-35 -258T-130 -290Q-178 -290 -202 -274ZM240
506T225 523T210 563Q210 597 234 623T294 649Q317 649 330 631T344 588Q344 555 320 531T262 506Q240 506 225 523Z" />
<glyph unicode="k" glyph-name="k" horiz-adv-x="535" d="M290 -15T274 35L231 160Q222 187 208 187Q202 187 199 182T189 161Q189 161 161 91Q151 64 136 28Q130 14 113 4T75 -7Q57 -7 40 7T23 45Q23 60 31 84L178 536Q191 575 191 596Q191 608 186 615T167 628Q157
632 152 635T146 643Q146 650 150 654T170 663Q201 674 257 690T329 707Q340 707 347 705T354 694Q354 680 351 668T346 654L222 300L221 296Q221 292 225 292Q231 292 234 297Q278 358 331 395T443 433Q474 433 492 419T511 379Q511 335 460 288T343 215Q337 214
337 207Q337 201 339 198L377 113Q389 87 404 87Q419 87 440 103T476 140Q477 142 481 147T489 152Q493 152 495 148T497 139Q497 110 469 74T402 11T332 -15Q290 -15 274 35ZM272 211T308 232T369 283T394 333Q394 358 361 358Q339 358 308 331T253 271T229 224Q229
220 232 216T239 211Q272 211 308 232Z" />
<glyph unicode="l" glyph-name="l" horiz-adv-x="313" d="M48 -14T31 4T13 41Q13 50 18 63L187 563Q196 589 196 602Q196 613 191 619T174 629Q162 632 158 636T151 649V653Q151 658 154 661T165 666Q195 674 239 683Q284 692 303 698Q336 707 346 707Q352 707
355 700T357 687Q354 670 344 643L162 120Q159 113 159 106Q159 93 171 93Q183 93 207 112T254 157Q260 163 262 163Q273 163 273 147Q273 122 236 84T151 16T70 -14Q48 -14 31 4Z" />
<glyph unicode="m" glyph-name="m" horiz-adv-x="831" d="M90 -15T76 -8T53 13T43 42Q45 57 51 72L157 325Q159 333 159 336Q159 348 145 348Q130 348 110 340T67 310Q64 305 57 305Q54 305 51 307T48 315Q47 325 61 345T87 377Q117 405 144 419T215 433Q241 433
256 417T272 376Q272 361 264 342L207 210L206 206Q206 202 210 202Q215 202 218 208Q263 283 296 329T365 404T442 433Q478 433 496 411T515 355Q515 318 496 283L482 251L481 247Q481 243 486 243Q492 243 496 248Q551 336 600 384T706 433Q740 433 756 415T773
364Q773 329 753 282L684 120Q678 107 678 99Q678 89 688 89Q698 89 722 106T767 142Q780 157 786 157Q789 157 792 154T796 145Q794 122 778 106Q732 52 677 19T566 -14Q551 -14 534 -3T516 24Q516 27 518 33L654 334Q658 342 658 351Q658 359 654 364T643 370Q619
370 570 298Q550 268 514 209T459 121L415 48Q399 22 372 4T329 -15Q314 -15 297 0T280 31Q280 45 292 76L400 337Q404 346 404 355Q404 362 400 366T389 371Q364 371 305 289Q285 262 258 214T203 116L169 53Q150 19 134 2T100 -15Q90 -15 76 -8Z" />
<glyph unicode="n" glyph-name="n" horiz-adv-x="598" d="M106 -14T91 -6T64 18T53 50Q53 61 57 69L158 320Q161 329 161 334Q161 345 149 345Q98 345 68 310Q63 305 58 305Q48 305 47 315Q46 325 60 345T86 377Q144 433 225 433Q252 433 266 417T281 377Q281
362 275 347L222 216L221 213Q221 211 223 210T229 208Q237 208 240 213Q299 319 352 376T463 433Q501 433 519 411T538 354Q538 324 526 297L451 120Q445 107 445 99Q445 89 455 89Q466 89 492 107T533 140Q546 155 552 155Q555 155 558 151T562 143Q562 125 549
107Q504 54 444 20T333 -14Q316 -14 300 -1T283 29Q283 37 285 40Q300 75 313 102T336 150Q343 165 370 222T416 331Q421 344 421 355Q421 368 408 368Q392 368 373 346T336 297T312 262Q295 239 254 171T182 50Q164 19 149 3T116 -14Q106 -14 91 -6Z" />
<glyph unicode="o" glyph-name="o" horiz-adv-x="458" d="M117 -14T84 4T30 54T10 128Q10 192 46 263T149 384T300 433Q368 433 408 395T448 290Q448 226 412 155T308 35T155 -14Q117 -14 84 4ZM205 25T239 81T296 215T319 354Q319 396 285 396Q258 396 223 340T164
206T139 69Q139 47 148 36T174 25Q205 25 239 81Z" />
<glyph unicode="p" glyph-name="p" horiz-adv-x="528" d="M-105 -285T-108 -282T-111 -274Q-110 -261 -89 -255Q-56 -247 -43 -239T-22 -207L148 312Q149 316 152 325T155 339Q155 350 140 347Q110 339 68 324Q56 321 55 321Q50 321 47 324T43 334Q43 351 69 362Q68
362 100 375Q143 395 164 403Q171 406 177 414T189 441Q204 488 230 511T288 534Q318 534 318 506Q318 498 315 486L304 447Q302 437 302 434Q302 430 303 428T307 426Q337 433 361 433Q438 433 480 396T522 297Q522 227 482 154T376 34T238 -14Q213 -14 183 6Q172
14 167 14Q162 14 159 10T151 -7L97 -197Q95 -207 95 -210Q95 -224 107 -234T149 -251Q168 -255 168 -271Q168 -276 162 -279T146 -283Q112 -283 93 -282L34 -281L-22 -283Q-76 -285 -100 -285Q-105 -285 -108 -282ZM263 24T301 62T366 159T394 281Q394 380 313
380Q296 380 287 378L201 110Q196 95 196 83Q196 69 202 55Q208 38 215 31T238 24Q263 24 301 62Z" />
<glyph unicode="q" glyph-name="q" horiz-adv-x="543" d="M107 -288Q103 -288 100 -284T97 -275Q98 -262 119 -256Q151 -248 165 -239T188 -206L240 -62L309 131Q310 133 310 136Q310 140 307 140Q303 140 297 134Q234 51 189 19T92 -14Q55 -14 31 13T6 81Q6 143
43 210T141 342Q185 386 235 413T329 440Q345 440 361 432T386 412Q393 404 398 399T409 394Q418 394 427 408L435 421Q463 462 497 462Q506 462 511 454T517 429Q517 403 503 361L316 -198Q313 -207 313 -214Q313 -241 347 -246Q381 -250 381 -264Q381 -269 374
-272T357 -276Q214 -276 108 -288H107ZM189 60T229 103T309 208Q346 265 360 291T375 336Q375 354 362 373T330 392Q299 392 254 335T174 204T139 90Q139 60 162 60Q189 60 229 103Z" />
<glyph unicode="r" glyph-name="r" horiz-adv-x="457" d="M77 -15T57 -1T36 31Q36 44 43 64L144 325Q146 329 146 336Q146 348 133 348Q115 348 104 342T74 321Q70 317 63 317Q53 317 53 330Q53 349 70 368T115 404Q138 417 163 425T212 433Q238 433 251 419T264
380Q264 353 249 317L211 226L210 222Q210 218 214 218Q220 218 223 224Q280 327 329 380T430 434Q461 434 478 416T495 370Q495 344 483 319T454 279T420 263Q409 263 403 273T393 305Q385 349 366 349Q349 349 333 329T290 264Q258 213 200 110L173 63Q153 28
132 7T94 -15Q77 -15 57 -1Z" />
<glyph unicode="s" glyph-name="s" horiz-adv-x="317" d="M26 -14T1 5T-25 55Q-25 81 -13 98T17 116Q24 116 32 109T57 84Q61 81 74 68T101 46T127 38Q159 38 159 75Q159 97 114 161Q69 225 69 273Q69 306 99 343T170 407T235 433Q259 433 283 423T322 397T338
370Q338 352 317 329T279 305Q261 305 240 334Q231 348 217 357T190 366Q176 366 168 357T160 335Q160 326 170 311T199 271Q209 259 213 253Q243 215 255 190T268 140Q268 112 238 75T162 12T69 -14Q26 -14 1 5Z" />
<glyph unicode="t" glyph-name="t" horiz-adv-x="364" d="M72 -14T52 7T32 46Q32 59 43 87L137 339Q140 348 140 353Q140 367 126 367L78 369Q53 370 53 389Q53 392 60 400T79 416T101 423H150Q164 423 169 427T183 448L211 504Q223 526 247 546T288 567Q299 567
305 558T311 536Q311 531 309 521L285 444Q283 434 283 433Q283 426 287 424T300 421Q323 421 363 416Q383 413 388 409T394 395Q394 391 387 385T367 376Q330 372 307 371Q288 370 279 366T266 352L191 145Q184 124 184 113Q184 98 199 98Q214 98 243 121T300
172Q306 177 308 175Q313 174 316 168T317 156Q312 130 273 89T183 17T94 -14Q72 -14 52 7Z" />
<glyph unicode="u" glyph-name="u" horiz-adv-x="596" d="M89 -14T69 11T49 65Q49 78 53 86L146 298Q152 312 152 319Q152 329 143 329Q134 329 107 310T66 278Q54 266 44 266Q36 266 36 275Q36 290 54 313Q99 368 149 401T246 434Q264 434 281 414T298 373Q298
365 295 359Q269 300 185 122Q179 109 179 98Q179 85 190 85Q201 85 225 113T292 199L314 228Q360 287 411 372Q432 405 444 419T472 433Q496 433 514 416T532 378Q532 375 530 367L430 108Q427 101 427 94Q427 86 433 86Q444 86 481 112T540 159Q543 162 544 162Q549
162 553 157T557 147Q557 127 523 93T443 32T368 4Q363 2 353 2Q336 2 321 11T298 34Q296 38 296 45Q296 54 299 61L311 87Q343 157 361 204L362 208Q362 213 358 213Q354 213 349 207Q272 102 216 44T114 -14Q89 -14 69 11Z" />
<glyph unicode="v" glyph-name="v" horiz-adv-x="477" d="M112 -14T87 9T61 70Q61 94 71 120L133 289Q136 297 136 302Q136 308 133 311T126 314Q116 314 99 304T72 285Q56 271 52 271Q38 271 38 283Q38 292 59 319Q90 357 147 395T237 434Q249 434 260 425T277
404T281 384L202 135Q196 114 196 100Q196 83 205 76T233 68Q261 68 298 101T362 182T389 269Q389 313 358 342Q347 353 343 360T338 379Q338 387 355 400T394 424T430 434Q447 434 459 413T471 351Q471 292 436 225T343 98Q238 -14 155 -14Q112 -14 87 9Z" />
<glyph unicode="w" glyph-name="w" horiz-adv-x="694" d="M663 434T675 413T688 351Q688 292 653 224T561 91Q519 42 474 14T387 -14Q347 -14 326 12T306 81Q273 36 230 11T138 -14Q106 -14 84 9T62 73Q62 107 78 148L133 292Q136 301 136 305Q136 314 129 314Q123
314 106 307T76 290Q58 278 53 278Q40 278 40 291Q40 305 61 326Q99 364 153 399T239 434Q279 434 279 393Q279 369 265 333L190 136Q184 120 184 107Q184 88 195 78T223 68Q250 68 286 113T343 216Q348 232 356 276Q359 304 366 332Q367 341 375 356T394 381Q412
397 426 403T467 410Q481 410 490 399T499 367Q499 345 491 320Q484 298 472 274T448 229L435 205Q412 162 414 130Q413 101 424 85T459 68Q489 68 521 99T574 178T596 270Q596 288 592 301T580 331L568 353Q557 369 557 376Q557 384 573 398T610 423T646 434Q663
434 675 413Z" />
<glyph unicode="x" glyph-name="x" horiz-adv-x="497" d="M10 -14T-2 -1T-15 34Q-15 57 1 79T34 102Q44 102 55 85Q65 71 83 71Q102 71 124 94Q132 104 154 128Q189 168 191 171Q197 180 197 187Q197 190 195 198L157 327Q152 344 143 344Q122 344 80 294Q73 287
68 287Q64 287 61 290T57 299Q57 325 77 356T129 410T196 433Q219 433 233 416T257 366L286 274Q288 268 291 268Q295 268 299 275L358 357Q386 397 411 415T460 433Q484 433 502 415T521 379Q521 363 513 348T492 323T471 313Q461 313 456 317T446 329Q441 339
436 343T421 347Q411 347 399 341T369 316Q347 294 311 238Q303 222 303 213Q303 210 305 200L333 98Q337 82 342 77T355 71Q364 71 379 85T412 128Q418 136 425 136Q434 136 434 121Q434 100 415 67T365 10T302 -14Q276 -14 257 5T231 50L222 95L212 139Q210 146
207 147T200 143Q195 137 167 96Q156 77 141 58Q117 24 88 5T34 -14Q10 -14 -2 -1Z" />
<glyph unicode="y" glyph-name="y" horiz-adv-x="482" d="M-77 -289T-99 -273T-121 -226Q-121 -199 -103 -176T-61 -152Q-46 -152 -15 -175Q0 -186 12 -192T40 -198Q70 -198 99 -169T150 -90Q186 -8 186 122Q186 199 178 249T157 323T133 346Q121 346 105 323T79
279Q69 256 60 256Q57 256 54 264T51 284Q51 319 74 355T130 415T192 439Q220 439 238 420T269 362Q299 262 299 136Q299 102 298 83V79Q298 66 302 66Q307 66 313 80Q347 144 361 225T373 415Q373 423 385 431T406 440Q415 440 431 431T459 407T471 375Q471 283
394 146T190 -130Q127 -199 63 -244T-47 -289Q-77 -289 -99 -273Z" />
<glyph unicode="z" glyph-name="z" horiz-adv-x="471" d="M462 434T468 429T474 419Q474 412 463 398T437 371L187 140Q217 134 258 97Q286 73 302 63T335 52Q352 52 361 72T371 121Q371 146 373 157T384 168Q400 168 413 153T426 112Q426 87 396 53T326 -7T265
-33Q238 -33 215 -21T164 12Q158 16 143 29T115 48T93 54Q68 54 53 37T37 -5Q37 -20 21 -20Q13 -20 6 -9T-1 14Q-1 26 5 40T25 65L282 287H274Q256 287 241 296T200 328Q177 345 165 352T139 359Q125 359 117 345T109 312Q109 289 121 270Q126 263 126 259Q126
256 121 251Q113 244 96 237T72 230Q64 230 55 242T46 273Q46 306 61 328T108 375Q132 395 166 414T219 433Q241 433 272 422Q271 422 299 414Q324 405 342 401T378 396Q393 396 401 400T424 416Q445 434 456 434Q462 434 468 429Z" />
<glyph unicode="{" glyph-name="braceleft" horiz-adv-x="389" d="M141 -152T86 -128T30 -54Q30 -37 37 -19L52 21Q94 131 105 167Q112 189 112 207Q112 229 101 243T66 267Q62 269 56 271T46 277T43 287Q44 295 51 299T79 310Q123 325 144 344T181 411Q188 436
207 513Q215 553 223 581Q239 647 316 680T487 714Q495 714 501 710T507 698Q507 676 465 676Q412 676 379 655T331 586Q324 564 313 505Q303 456 294 421Q278 369 231 332T125 283Q119 282 125 279Q167 270 192 243T217 178Q217 161 211 141Q202 111 178 54Q152
-10 148 -24Q141 -49 141 -61Q141 -87 160 -98T222 -116Q227 -117 235 -118T248 -122T253 -131Q253 -141 243 -146T221 -152Q141 -152 86 -128Z" />
<glyph unicode="|" glyph-name="bar" horiz-adv-x="276" d="M94 -289T88 -281T81 -264V650Q81 668 98 680T135 698T164 705Q174 705 182 698T190 682V-245Q190 -270 160 -279T103 -289Q94 -289 88 -281Z" />
<glyph unicode="}" glyph-name="braceright" horiz-adv-x="389" d="M292 714T347 690T403 616Q403 599 396 581L381 541Q339 431 328 395Q321 373 321 355Q321 333 332 319T367 295Q371 293 377 291T387 285T390 275Q389 267 382 263T354 252Q310 237 289 218T252
151Q245 126 226 49Q218 9 210 -19Q194 -85 117 -118T-54 -152Q-62 -152 -68 -148T-74 -136Q-74 -114 -32 -114Q21 -114 54 -93T102 -24Q109 -2 120 57Q130 106 139 141Q155 193 202 230T308 279Q314 280 308 283Q266 292 241 319T216 384Q216 401 222 421Q231
451 255 508Q281 572 285 586Q292 611 292 623Q292 649 273 660T211 678Q206 679 198 680T185 684T180 693Q180 703 190 708T212 714Q292 714 347 690Z" />
<glyph unicode="~" glyph-name="asciitilde" horiz-adv-x="545" d="M90 254T83 265T75 284Q75 295 99 324T156 378T219 402Q235 402 252 398T297 383Q301 382 305 380T316 376Q374 356 413 356Q447 356 487 380Q494 384 498 387T506 392Q518 402 524 402Q530 402
537 391T544 372Q544 363 520 333T463 279T400 255Q382 255 362 260T313 276Q272 289 250 295T205 301Q180 301 156 290T116 268T96 255Q90 254 83 265Z" />
<glyph unicode="&#xa0;" glyph-name="uni00A0" horiz-adv-x="237" />
<glyph unicode="&#xa1;" glyph-name="exclamdown" horiz-adv-x="303" d="M201 302T201 278Q201 267 198 252Q173 116 136 -58Q125 -104 99 -136T37 -169Q17 -169 3 -152T-11 -103Q-11 -75 2 -40Q9 -19 47 64T138 252Q151 276 161 289T183 302Q201 302 201 278ZM262
494T279 477T296 436Q296 402 270 376T208 350Q180 350 163 369T146 412Q146 445 173 469T238 494Q262 494 279 477Z" />
<glyph unicode="&#xa2;" glyph-name="cent" horiz-adv-x="431" d="M110 -82T106 -77T105 -63L127 -11Q74 3 45 45T15 150Q15 215 55 280T163 389T308 432L331 487Q335 496 345 502T365 508Q370 508 373 505T377 496Q377 493 375 487L352 431Q391 428 428 407T464
362Q463 344 439 326T393 308Q369 308 362 324Q354 344 347 355T329 373L219 104Q233 102 244 102Q281 102 316 115T374 153Q382 162 391 162Q400 162 400 153Q400 145 393 133Q353 64 299 27T170 -14L150 -63Q145 -71 136 -76T119 -82Q110 -82 106 -77ZM288 381Q246
380 212 353T157 282T137 196Q137 168 148 146T178 114L288 381Z" />
<glyph unicode="&#xa3;" glyph-name="sterling" horiz-adv-x="622" d="M595 629T628 604T661 542Q661 509 637 483T578 456Q568 456 565 459T561 470Q561 473 571 491T582 532Q582 556 569 572T530 588Q497 588 473 567T427 496T374 356V355L484 362H485Q492 362
497 357T501 346Q500 337 488 325T461 312L354 305Q328 246 290 202T206 141Q204 140 204 138T206 134Q241 134 265 122T315 89Q321 84 338 70T371 48T406 40Q439 40 464 58T489 108Q489 118 480 134Q479 136 476 142T472 157Q472 174 485 184T514 195Q538 195
549 183T560 141Q560 101 533 60T456 -9T339 -37Q300 -37 270 -24T208 14Q200 20 180 36T144 60T112 68Q67 36 28 -5Q20 -13 8 -13Q-8 -13 -22 -2T-36 25Q-36 46 -14 69T45 109T118 127Q141 158 159 198T196 294L105 288H104Q97 288 92 293T86 304Q86 314 96 325T118
338L212 344L224 382Q259 492 336 560T526 629Q595 629 628 604Z" />
<glyph unicode="&#xa4;" glyph-name="currency" horiz-adv-x="499" d="M522 480T533 468T541 441Q540 436 537 432L477 388Q488 358 488 325Q488 275 465 225T401 135L428 98Q433 91 433 86Q433 74 420 63T394 52Q385 54 379 63L353 98Q287 58 208 58Q139 58 95
100L36 56Q30 52 24 52Q13 52 2 65T-9 90Q-9 95 -8 97T-3 101T2 105L63 151Q54 175 54 205Q54 255 78 304T143 392L107 440Q105 444 105 447Q105 459 121 471T149 480Q155 479 157 475L190 429Q261 474 336 474Q403 474 442 438L494 476Q501 480 507 480Q522 480
533 468ZM277 117T323 145T398 217T427 310Q427 355 398 385T318 415Q267 415 220 387T145 314T116 223Q116 177 145 147T226 117Q277 117 323 145Z" />
<glyph unicode="&#xa5;" glyph-name="yen" horiz-adv-x="646" d="M105 -6T99 -3T93 7Q93 25 129 31Q168 38 189 57T220 110L243 184H133Q126 184 121 189T116 201Q118 211 128 222T150 233L258 232L263 248Q265 254 270 274H165Q158 274 153 279T148 291Q149 301
159 312T182 323H270Q269 335 264 349L204 555Q195 581 184 596T147 618Q129 623 129 634Q129 643 137 648T155 654Q195 654 231 651Q242 651 265 650T307 648Q333 648 361 651Q370 651 389 652T426 654Q436 654 442 650T448 640Q446 632 436 627T414 619Q378 610
364 598T349 565Q349 560 351 546L386 371Q390 356 393 351T401 345Q407 345 425 366Q495 449 565 538Q590 568 590 588Q590 614 549 618Q539 620 532 625T524 636Q524 644 534 648T558 653Q578 653 610 651Q642 649 660 649Q681 649 715 653Q724 654 737 655T768
656Q796 656 792 640Q790 633 784 630T770 624T759 620Q729 613 700 594T651 551Q548 435 509 393L472 352Q459 337 448 322H544Q551 322 556 316T560 304Q557 295 544 284T516 273H424L411 232L517 231Q523 231 527 226T532 216Q532 208 518 196T489 183H396L374
110Q367 90 367 75Q367 58 378 48T416 31Q440 25 440 15Q440 6 431 1T408 -5Q385 -5 333 -1Q319 0 301 1T263 2Q243 2 193 -2Q139 -6 116 -6Q105 -6 99 -3Z" />
<glyph unicode="&#xa6;" glyph-name="brokenbar" horiz-adv-x="277" d="M94 256T88 264T81 283V649Q81 667 98 679T135 698T164 705Q174 705 182 698T190 681V299Q190 275 159 266T103 256Q94 256 88 264ZM96 -290T90 -282T83 -265V130Q83 147 100 159T137 177T166
184Q176 184 183 177T191 159V-246Q191 -271 161 -280T105 -290Q96 -290 90 -282Z" />
<glyph unicode="&#xa7;" glyph-name="section" horiz-adv-x="440" d="M9 -148T-10 -139T-29 -116Q-29 -104 -18 -86T8 -55T35 -42Q45 -42 52 -46T75 -61Q100 -81 132 -81Q164 -81 185 -57T207 5Q207 41 190 73T136 157Q102 207 86 238T70 303Q70 364 103 410T198
502Q232 561 287 600T397 640Q432 640 463 627T495 595Q495 585 482 569T452 539T426 526Q420 526 413 532T401 545T392 554Q365 581 341 581Q310 581 287 558T264 505Q264 475 282 445T339 366Q369 327 385 292T402 218Q402 161 370 99T282 -20Q224 -80 162 -114T40
-148Q9 -148 -10 -139ZM276 59T279 59T285 63Q316 119 317 157Q320 195 307 228T266 301Q235 343 218 373T198 434Q198 441 189 434Q171 415 162 393T153 336Q153 309 167 282T215 206Q244 163 260 130T276 63Q276 59 279 59Z" />
<glyph unicode="&#xa8;" glyph-name="dieresis" horiz-adv-x="456" d="M193 495T179 510T165 549Q165 585 193 611T259 638Q284 638 299 623T314 584Q314 547 285 521T216 495Q193 495 179 510ZM391 495T377 510T363 549Q363 585 391 611T457 638Q482 638 497
623T512 584Q512 547 483 521T414 495Q391 495 377 510Z" />
<glyph unicode="&#xa9;" glyph-name="copyright" horiz-adv-x="681" d="M291 17T220 58T108 171T66 327Q66 411 107 482T220 595T376 637Q460 637 531 596T644 483T686 327Q686 243 644 172T531 59T375 17Q291 17 220 58ZM445 66T504 101T597 196T631 327Q631
396 597 454T504 547T376 582Q307 582 249 548T156 455T121 327Q121 257 155 197T247 102T375 66Q445 66 504 101ZM333 138T285 162T209 228T180 322Q180 372 208 415T288 483T405 509Q430 509 457 503T506 487Q512 485 515 482T519 471Q523 442 523 398Q523 389
518 384T505 378Q492 378 487 394Q479 420 466 432Q443 458 400 458Q352 458 327 422T302 331Q302 187 401 187Q436 187 457 201T492 249Q496 257 502 260T514 262Q519 261 522 256T526 243Q526 226 523 211T515 177Q513 172 511 170T505 167T499 165Q447 138 389
138Q333 138 285 162Z" />
<glyph unicode="&#xaa;" glyph-name="ordfeminine" horiz-adv-x="349" d="M102 283T84 297T66 332Q66 365 87 384T149 416L222 440Q238 445 243 449T251 467L257 489Q261 505 261 509Q261 526 242 526Q234 526 225 523T209 514Q204 509 203 500T200 485Q198 477
165 466T119 455Q113 455 113 461Q113 466 118 474Q127 488 137 499T165 522Q192 538 229 552T295 566Q328 566 346 550T364 505Q364 488 359 473L321 364Q318 355 318 347Q318 339 321 334T330 329Q339 329 352 338Q354 340 358 340Q360 340 362 338T364 333Q364
326 356 319T341 307Q306 283 275 283Q250 283 238 293T218 321H216Q171 283 128 283Q102 283 84 297ZM193 332T203 338Q210 343 211 351L230 406L231 410Q231 413 228 414T221 414Q196 404 185 393T167 359Q166 356 166 351Q166 343 170 338T184 332Q193 332 203
338ZM31 159T26 164T20 174Q20 183 30 193T51 204H280Q286 204 291 200T296 189Q296 179 283 169T256 159H37Q31 159 26 164Z" />
<glyph unicode="&#xab;" glyph-name="guillemotleft" horiz-adv-x="622" d="M272 16T264 25T254 36Q213 84 173 116T72 186Q69 188 62 192T52 200T49 207Q49 213 56 218T72 227Q156 264 223 304T375 406Q377 407 383 412T399 417Q409 417 409 410Q409 401 398
388Q345 329 298 294T186 216Q178 211 178 207Q178 205 183 200Q218 162 244 127T293 43Q295 37 295 33Q295 26 292 21T284 16Q272 16 264 25ZM483 16T475 25T465 36Q424 84 384 116T283 186Q280 188 273 192T263 200T260 207Q260 213 267 218T283 227Q367 264
434 304T586 406Q588 407 594 412T610 417Q620 417 620 410Q620 401 609 388Q556 329 509 294T397 216Q389 211 389 207Q389 205 394 200Q429 162 455 127T504 43Q506 37 506 33Q506 26 503 21T495 16Q483 16 475 25Z" />
<glyph unicode="&#xac;" glyph-name="logicalnot" horiz-adv-x="600" d="M493 42T488 48T483 61V300Q483 316 469 316H53Q46 316 40 321T34 331Q34 348 42 368T67 388H538Q555 388 555 368V74Q555 58 535 50T498 42Q493 42 488 48Z" />
<glyph unicode="&#xad;" glyph-name="uni00AD" horiz-adv-x="321" d="M29 164Q19 164 19 176Q19 200 33 217T61 237Q170 253 293 265H295Q302 265 304 261T306 249Q306 235 293 216T267 194L222 188Q104 171 31 164H29Z" />
<glyph unicode="&#xae;" glyph-name="registered" horiz-adv-x="709" d="M306 17T235 58T122 171T80 327Q80 411 122 482T235 595T391 637Q475 637 546 596T659 483T701 327Q701 243 659 172T546 59T390 17Q306 17 235 58ZM460 66T519 101T612 196T646 327Q646
396 612 454T519 547T391 582Q322 582 264 548T171 455T136 327Q136 257 170 197T262 102T390 66Q460 66 519 101ZM486 171T446 212T382 307Q377 318 365 318Q357 318 357 309V228Q357 213 366 207T397 196Q410 192 410 182Q410 177 407 174T398 170Q386 170 356
172L314 173L279 172Q253 170 240 170Q236 170 232 174T228 182Q228 192 241 196Q260 201 266 207T273 228V438Q273 456 268 462T244 474Q231 475 231 486Q231 489 234 491T243 494Q254 494 264 493T280 491Q302 489 314 489Q325 489 347 491L391 494Q451 494 484
474T517 414Q517 384 500 366T455 335Q451 333 455 326Q470 289 492 263T535 223T572 210Q581 210 581 202Q581 188 565 180T517 171Q486 171 446 212ZM405 354T421 368T437 404Q437 458 383 458Q367 458 361 453T355 438V369Q355 354 376 354Q405 354 421 368Z"
/>
<glyph unicode="&#xaf;" glyph-name="overscore" horiz-adv-x="355" d="M130 516T127 520T124 533Q124 554 141 574T174 594H426Q447 594 447 581Q447 563 428 540T392 516H139Q130 516 127 520Z" />
<glyph unicode="&#xb0;" glyph-name="degree" horiz-adv-x="347" d="M231 381T197 402T144 457T124 530Q124 568 143 600T197 651T274 670Q316 670 349 651T402 600T421 530Q421 492 402 458T350 402T274 381Q231 381 197 402ZM307 437T331 462T355 525Q355 562
331 586T273 611Q238 611 214 587T190 525Q190 487 214 462T273 437Q307 437 331 462Z" />
<glyph unicode="&#xb1;" glyph-name="plusminus" horiz-adv-x="598" d="M279 125T275 130T271 142V344Q271 356 259 356H50Q44 356 39 360T34 369Q34 383 41 398T62 413H258Q266 413 268 416T271 426V596Q271 609 285 619T313 630Q320 630 324 624T328 609V426Q328
413 340 413H543Q552 413 558 409T565 398Q564 384 554 370T531 356H340Q328 356 328 345V153Q328 140 313 133T284 125Q279 125 275 130ZM45 31T40 35T34 45Q34 59 42 75T65 92H542Q552 92 559 87T566 75Q565 59 555 45T530 31H52Q45 31 40 35Z" />
<glyph unicode="&#xb2;" glyph-name="uni00B2" horiz-adv-x="339" d="M324 438T309 439Q259 441 218 441Q176 441 128 439L107 438Q104 438 102 440T99 444Q99 450 106 455L168 507Q254 581 287 617T321 682Q321 698 310 708T279 718Q261 718 242 707T208 680Q197
667 191 667Q183 667 183 675Q183 678 185 684Q198 721 242 748T334 775Q376 775 399 756T423 700Q423 676 407 656T357 603Q338 587 247 530L220 512Q219 511 221 510T228 508H323Q340 508 358 520T392 550Q401 561 412 561Q420 561 420 555Q420 549 415 543Q389
508 375 481T359 452Q357 446 352 442T343 438Q324 438 309 439Z" />
<glyph unicode="&#xb3;" glyph-name="uni00B3" horiz-adv-x="302" d="M143 435T127 442T114 462Q117 474 125 485T141 497Q149 497 158 491T171 482Q177 476 186 471T203 466Q218 466 235 478T263 509T275 551Q275 571 265 588T238 605Q219 605 207 597T192 589Q179
589 180 601Q184 613 229 635Q275 654 293 668T312 700Q312 731 276 731Q260 731 246 725T215 706Q211 703 207 699T200 695Q196 695 193 700T192 710Q205 730 240 752T323 775Q359 775 379 758T400 716Q400 691 374 671T311 641Q309 640 309 639T310 638Q337 638
355 617T374 569Q374 534 342 503T261 454T168 435Q143 435 127 442Z" />
<glyph unicode="&#xb4;" glyph-name="acute" horiz-adv-x="237" d="M143 470T143 484Q143 494 147 502L220 660Q229 679 237 687T257 695Q272 695 294 677T316 646Q316 632 293 607L186 487Q169 470 156 470Q143 470 143 484Z" />
<glyph unicode="&#xb5;" glyph-name="uni00B5" horiz-adv-x="571" d="M-11 -288T-24 -265T-37 -213Q-37 -147 8 0L19 27Q22 34 30 55T44 92Q60 146 89 253T130 409Q134 421 144 427T168 433Q192 433 214 422T248 394T257 366Q249 334 137 156Q127 133 127 125Q127
108 140 93T174 78Q209 81 246 115T325 206Q327 210 332 226Q371 333 396 398Q403 417 411 425T432 433Q449 433 471 424T509 402T525 376Q523 355 481 288T386 158Q383 149 383 141Q383 121 400 110T444 98Q460 98 478 106T514 124T534 135Q538 135 541 132T544
123Q541 84 519 52T466 3T405 -15Q377 -15 358 7T338 66Q338 78 339 84Q342 102 351 120L348 121Q346 118 322 84T263 18T207 -13Q179 -13 164 -1T136 28T120 49Q116 54 105 70T88 86Q78 86 67 59Q61 42 55 9T49 -52Q49 -79 58 -108T81 -157Q86 -164 94 -173T105
-190T109 -203Q109 -214 92 -234T52 -271T17 -288Q-11 -288 -24 -265Z" />
<glyph unicode="&#xb6;" glyph-name="paragraph" horiz-adv-x="608" d="M62 -287T26 -258T-11 -183Q-11 -137 9 -103T63 -50T138 -32Q171 -32 191 -48T211 -95Q211 -126 191 -146T141 -166Q122 -166 92 -149Q89 -147 79 -141T59 -135Q48 -135 42 -146T35 -172Q35
-200 57 -220T121 -241Q184 -241 228 -203T294 -95L345 64L347 72Q347 84 336 84Q257 84 197 111T104 188T71 306Q71 348 82 388Q109 499 167 554T317 628T562 647Q603 647 647 645T705 640Q715 637 715 622Q715 610 708 597T692 583Q687 584 653 590T582 597Q574
597 565 590T553 572L352 -82Q322 -177 269 -232T121 -287Q62 -287 26 -258ZM349 130T353 133T360 144L501 583V585Q501 589 496 591T484 593Q451 593 430 583T383 528T325 385Q287 265 287 204Q287 165 301 148T345 130Q349 130 353 133Z" />
<glyph unicode="&#xb7;" glyph-name="middot" horiz-adv-x="255" d="M83 132T65 151T46 197Q46 236 75 266T143 296Q174 296 192 275T210 225Q210 187 181 160T110 132Q83 132 65 151Z" />
<glyph unicode="&#xb8;" glyph-name="cedilla" horiz-adv-x="237" d="M-59 -281T-80 -271T-113 -247T-126 -217Q-126 -199 -118 -190T-96 -180Q-74 -180 -45 -206Q-39 -210 -30 -218T-14 -229T1 -233Q10 -233 15 -228T21 -213Q21 -203 16 -196T2 -181T-11 -168Q-25
-155 -35 -140T-46 -112Q-46 -89 -6 -50T80 17H119Q53 -31 53 -63Q53 -71 60 -79T75 -96T86 -106Q117 -134 117 -155Q117 -176 92 -206T30 -258T-35 -281Q-59 -281 -80 -271Z" />
<glyph unicode="&#xb9;" glyph-name="uni00B9" horiz-adv-x="253" d="M113 438T111 440T110 447Q111 459 125 462Q148 466 155 470T166 491L225 684Q227 692 227 696Q227 719 194 728Q184 730 186 739Q192 755 207 756L244 759Q282 762 301 765T339 775Q349 780
351 780Q355 780 357 778T357 771Q356 767 350 754T340 728L267 492Q264 483 264 478Q264 473 269 470T289 462Q295 459 296 457T296 449Q293 439 284 439L236 440Q221 441 199 441L164 440Q132 438 117 438Q113 438 111 440Z" />
<glyph unicode="&#xba;" glyph-name="ordmasculine" horiz-adv-x="381" d="M151 289T120 317T89 394Q89 414 93 431Q109 494 167 533T304 572Q359 572 390 544T421 469Q421 450 417 434Q404 370 350 330T207 289Q151 289 120 317ZM253 325T272 357T303 432Q311
462 311 487Q311 509 305 522T284 535Q257 535 237 503T206 429Q199 404 199 378Q199 354 206 340T226 325Q253 325 272 357ZM41 159T36 164T30 175Q30 183 40 193T61 204H298Q304 204 309 200T314 189Q314 179 301 169T275 159H47Q41 159 36 164Z" />
<glyph unicode="&#xbb;" glyph-name="guillemotright" horiz-adv-x="636" d="M361 417T369 408T379 397Q420 349 460 317T561 247Q564 245 571 241T581 233T584 226Q584 220 577 215T561 206Q477 169 410 129T258 27Q256 26 250 21T234 16Q224 16 224 23Q224 32
235 45Q288 104 335 139T447 217Q455 222 455 226Q455 228 450 233Q415 271 389 306T340 390Q338 396 338 400Q338 407 341 412T349 417Q361 417 369 408ZM150 417T158 408T168 397Q209 349 249 317T350 247Q353 245 360 241T370 233T373 226Q373 220 366 215T350
206Q266 169 199 129T47 27Q45 26 39 21T23 16Q13 16 13 23Q13 32 24 45Q77 104 124 139T236 217Q244 222 244 226Q244 228 239 233Q204 271 178 306T129 390Q127 396 127 400Q127 407 130 412T138 417Q150 417 158 408Z" />
<glyph unicode="&#xbc;" glyph-name="onequarter" horiz-adv-x="684" d="M64 278T62 280T61 287Q62 299 76 302Q99 306 106 310T117 331L176 524Q178 532 178 536Q178 559 145 568Q135 570 137 579Q143 595 158 596L195 599Q233 602 252 605T290 615Q300 620 302
620Q306 620 308 618T308 611Q307 607 301 594T291 568L218 332Q215 323 215 318Q215 313 220 310T240 302Q246 299 247 297T247 289Q244 279 235 279L187 280Q172 281 150 281L115 280Q83 278 68 278Q64 278 62 280ZM58 -21T52 -16T46 -2Q46 5 52 11L660 653Q675
669 708 669Q718 669 724 664T730 653Q730 647 726 643L119 4Q98 -21 68 -21Q58 -21 52 -16ZM463 -9T466 -1L491 79L492 84Q492 90 483 90Q434 90 409 89L331 88Q326 88 326 93Q326 96 331 101Q394 159 532 270L563 292Q602 316 629 339Q631 340 640 346T654 353Q659
353 657 344L592 138Q591 136 592 135T597 134Q636 134 642 135Q647 135 647 128Q646 120 636 106T620 92L587 93Q578 93 575 85L559 29Q557 21 540 13T502 -2T475 -9Q463 -9 466 -1ZM503 135Q507 135 509 139L539 230Q539 231 538 231T535 230L497 201Q435 154
419 139Q417 135 419 135H503Z" />
<glyph unicode="&#xbd;" glyph-name="onehalf" horiz-adv-x="720" d="M64 278T62 280T61 287Q62 299 76 302Q99 306 106 310T117 331L176 524Q178 532 178 536Q178 559 145 568Q135 570 137 579Q143 595 158 596L195 599Q233 602 252 605T290 615Q300 620 302
620Q306 620 308 618T308 611Q307 607 301 594T291 568L218 332Q215 323 215 318Q215 313 220 310T240 302Q246 299 247 297T247 289Q244 279 235 279L187 280Q172 281 150 281L115 280Q83 278 68 278Q64 278 62 280ZM55 -21T49 -16T43 -2Q43 5 49 11L657 653Q672
669 705 669Q715 669 721 664T727 653Q727 647 723 643L116 4Q95 -21 65 -21Q55 -21 49 -16ZM565 -16T550 -15Q500 -13 459 -13Q417 -13 369 -15L348 -16Q345 -16 343 -14T340 -10Q340 -4 347 1L409 53Q495 127 528 163T562 228Q562 244 551 254T520 264Q502 264
483 253T449 226Q438 213 432 213Q424 213 424 221Q424 224 426 230Q439 267 483 294T575 321Q617 321 640 302T664 246Q664 222 648 202T598 149Q579 133 488 76L461 58Q460 57 462 56T469 54H564Q581 54 599 66T633 96Q642 107 653 107Q661 107 661 101Q661 95
656 89Q630 54 616 27T600 -2Q598 -8 593 -12T584 -16Q565 -16 550 -15Z" />
<glyph unicode="&#xbe;" glyph-name="threequarters" horiz-adv-x="699" d="M93 275T77 282T64 302Q67 314 75 325T91 337Q99 337 108 331T121 322Q127 316 136 311T153 306Q168 306 185 318T213 349T225 391Q225 411 215 428T188 445Q169 445 157 437T142 429Q129
429 130 441Q134 453 179 475Q225 494 243 508T262 540Q262 571 226 571Q210 571 196 565T165 546Q161 543 157 539T150 535Q146 535 143 540T142 550Q155 570 190 592T273 615Q309 615 329 598T350 556Q350 531 324 511T261 481Q259 480 259 479T260 478Q287 478
305 457T324 409Q324 374 292 343T211 294T118 275Q93 275 77 282ZM78 -21T72 -16T66 -2Q66 5 72 11L680 653Q695 669 728 669Q738 669 744 664T750 653Q750 647 746 643L139 4Q118 -21 88 -21Q78 -21 72 -16ZM478 -9T481 -1L506 79L507 84Q507 90 498 90Q449 90
424 89L346 88Q341 88 341 93Q341 96 346 101Q409 159 547 270L578 292Q617 316 644 339Q646 340 655 346T669 353Q674 353 672 344L607 138Q606 136 607 135T612 134Q651 134 657 135Q662 135 662 128Q661 120 651 106T635 92L602 93Q593 93 590 85L574 29Q572
21 555 13T517 -2T490 -9Q478 -9 481 -1ZM518 135Q522 135 524 139L554 230Q554 231 553 231T550 230L512 201Q450 154 434 139Q432 135 434 135H518Z" />
<glyph unicode="&#xbf;" glyph-name="questiondown" horiz-adv-x="388" d="M250 306T264 293T288 261T299 221Q299 184 288 157T242 105T143 58Q31 24 31 -39Q31 -67 49 -83T105 -100Q118 -100 134 -92T157 -81Q160 -79 173 -73T196 -67Q213 -67 224 -78T235 -108Q235
-139 209 -158T143 -178Q102 -178 67 -154T11 -87T-11 11Q-11 53 18 91T93 148L186 187Q213 198 222 209T232 239Q232 251 228 269Q227 275 225 282T222 295Q222 306 243 306Q250 306 264 293ZM300 497T316 480T332 440Q332 405 307 380T248 354Q221 354 206 372T190
415Q190 447 216 472T277 497Q300 497 316 480Z" />
<glyph unicode="&#xc0;" glyph-name="Agrave" horiz-adv-x="747" d="M-55 -5T-60 -2T-66 8Q-66 28 -37 33Q-1 41 36 58T95 100Q234 256 374 421L476 539Q496 562 515 595Q517 598 523 607T532 620T539 624Q593 624 627 645Q633 649 645 657T666 669T680 673Q692
673 692 646Q692 637 688 613L589 114Q587 98 587 93Q587 69 601 55T647 32Q662 28 668 25T674 12Q674 5 664 1T643 -3Q625 -3 571 -1Q529 2 491 2Q471 2 417 0Q361 -2 342 -2Q333 -2 328 1T323 12Q323 20 331 26T350 34Q388 42 407 56T433 100L463 221L464 227Q464
240 447 240H295Q279 240 266 222L197 133Q167 96 167 73Q167 45 213 34Q238 28 238 12Q237 6 228 2T206 -2L149 -1Q111 1 91 1Q71 1 54 0T24 -2Q-10 -5 -43 -5Q-55 -5 -60 -2ZM461 285Q469 285 473 288T479 299L527 518Q529 525 529 530T525 536Q520 536 512 528L329
304Q321 294 321 291Q321 285 341 285H461ZM687 694Q676 694 664 699Q584 740 494 789Q476 798 475 810Q472 820 499 834T542 851Q546 852 553 852Q567 852 577 842Q596 823 630 785Q668 743 689 723Q701 712 701 703Q701 694 691 694H687Z" />
<glyph unicode="&#xc1;" glyph-name="Aacute" horiz-adv-x="747" d="M-55 -5T-60 -2T-66 8Q-66 28 -37 33Q-1 41 36 58T95 100Q234 256 374 421L476 539Q496 562 515 595Q517 598 523 607T532 620T539 624Q593 624 627 645Q633 649 645 657T666 669T680 673Q692
673 692 646Q692 637 688 613L589 114Q587 98 587 93Q587 69 601 55T647 32Q662 28 668 25T674 12Q674 5 664 1T643 -3Q625 -3 571 -1Q529 2 491 2Q471 2 417 0Q361 -2 342 -2Q333 -2 328 1T323 12Q323 20 331 26T350 34Q388 42 407 56T433 100L463 221L464 227Q464
240 447 240H295Q279 240 266 222L197 133Q167 96 167 73Q167 45 213 34Q238 28 238 12Q237 6 228 2T206 -2L149 -1Q111 1 91 1Q71 1 54 0T24 -2Q-10 -5 -43 -5Q-55 -5 -60 -2ZM461 285Q469 285 473 288T479 299L527 518Q529 525 529 530T525 536Q520 536 512 528L329
304Q321 294 321 291Q321 285 341 285H461ZM594 684T594 692V694Q594 699 602 713Q656 798 696 848Q709 862 729 862Q744 862 773 853T803 832Q803 825 799 820T786 808Q681 728 631 694Q616 684 606 684Q594 684 594 692Z" />
<glyph unicode="&#xc2;" glyph-name="Acircumflex" horiz-adv-x="747" d="M-55 -5T-60 -2T-66 8Q-66 28 -37 33Q-1 41 36 58T95 100Q234 256 374 421L476 539Q496 562 515 595Q517 598 523 607T532 620T539 624Q593 624 627 645Q633 649 645 657T666 669T680 673Q692
673 692 646Q692 637 688 613L589 114Q587 98 587 93Q587 69 601 55T647 32Q662 28 668 25T674 12Q674 5 664 1T643 -3Q625 -3 571 -1Q529 2 491 2Q471 2 417 0Q361 -2 342 -2Q333 -2 328 1T323 12Q323 20 331 26T350 34Q388 42 407 56T433 100L463 221L464 227Q464
240 447 240H295Q279 240 266 222L197 133Q167 96 167 73Q167 45 213 34Q238 28 238 12Q237 6 228 2T206 -2L149 -1Q111 1 91 1Q71 1 54 0T24 -2Q-10 -5 -43 -5Q-55 -5 -60 -2ZM461 285Q469 285 473 288T479 299L527 518Q529 525 529 530T525 536Q520 536 512 528L329
304Q321 294 321 291Q321 285 341 285H461ZM497 693T493 696T490 705Q492 714 503 720L634 814Q660 832 670 837T692 843Q705 843 712 838T735 814L812 721Q817 715 815 705Q814 700 809 696T795 692Q784 692 748 709T684 742Q678 745 672 745Q666 745 658 742Q627
728 575 711T506 693Q497 693 493 696Z" />
<glyph unicode="&#xc3;" glyph-name="Atilde" horiz-adv-x="747" d="M-55 -5T-60 -2T-66 8Q-66 28 -37 33Q-1 41 36 58T95 100Q234 256 374 421L476 539Q496 562 515 595Q517 598 523 607T532 620T539 624Q593 624 627 645Q633 649 645 657T666 669T680 673Q692
673 692 646Q692 637 688 613L589 114Q587 98 587 93Q587 69 601 55T647 32Q662 28 668 25T674 12Q674 5 664 1T643 -3Q625 -3 571 -1Q529 2 491 2Q471 2 417 0Q361 -2 342 -2Q333 -2 328 1T323 12Q323 20 331 26T350 34Q388 42 407 56T433 100L463 221L464 227Q464
240 447 240H295Q279 240 266 222L197 133Q167 96 167 73Q167 45 213 34Q238 28 238 12Q237 6 228 2T206 -2L149 -1Q111 1 91 1Q71 1 54 0T24 -2Q-10 -5 -43 -5Q-55 -5 -60 -2ZM461 285Q469 285 473 288T479 299L527 518Q529 525 529 530T525 536Q520 536 512 528L329
304Q321 294 321 291Q321 285 341 285H461ZM519 691T512 697T505 707Q505 714 521 739T555 786T583 808Q597 808 631 806Q655 804 666 804L686 803Q724 801 750 801Q768 801 785 820Q790 826 796 834T805 842Q810 842 819 835T828 823Q828 819 821 809T810 795L787
761L770 735Q761 721 739 721Q726 721 705 723T661 726Q587 732 572 732Q559 732 542 713Q540 710 533 701T524 691Q519 691 512 697Z" />
<glyph unicode="&#xc4;" glyph-name="Adieresis" horiz-adv-x="747" d="M-55 -5T-60 -2T-66 8Q-66 28 -37 33Q-1 41 36 58T95 100Q234 256 374 421L476 539Q496 562 515 595Q517 598 523 607T532 620T539 624Q593 624 627 645Q633 649 645 657T666 669T680 673Q692
673 692 646Q692 637 688 613L589 114Q587 98 587 93Q587 69 601 55T647 32Q662 28 668 25T674 12Q674 5 664 1T643 -3Q625 -3 571 -1Q529 2 491 2Q471 2 417 0Q361 -2 342 -2Q333 -2 328 1T323 12Q323 20 331 26T350 34Q388 42 407 56T433 100L463 221L464 227Q464
240 447 240H295Q279 240 266 222L197 133Q167 96 167 73Q167 45 213 34Q238 28 238 12Q237 6 228 2T206 -2L149 -1Q111 1 91 1Q71 1 54 0T24 -2Q-10 -5 -43 -5Q-55 -5 -60 -2ZM461 285Q469 285 473 288T479 299L527 518Q529 525 529 530T525 536Q520 536 512 528L329
304Q321 294 321 291Q321 285 341 285H461ZM529 689T512 706T495 745Q495 781 522 806T588 832Q613 832 629 814T646 770Q646 738 619 714T554 689Q529 689 512 706ZM728 689T711 705T693 744Q693 781 719 806T787 832Q812 832 828 814T845 770Q845 738 817 714T753
689Q728 689 711 705Z" />
<glyph unicode="&#xc5;" glyph-name="Aring" horiz-adv-x="747" d="M-55 -5T-60 -2T-66 8Q-66 28 -37 33Q-1 41 36 58T95 100Q234 256 374 421L476 539Q496 562 515 595Q517 598 523 607T532 620T539 624Q593 624 627 645Q633 649 645 657T666 669T680 673Q692
673 692 646Q692 637 688 613L589 114Q587 98 587 93Q587 69 601 55T647 32Q662 28 668 25T674 12Q674 5 664 1T643 -3Q625 -3 571 -1Q529 2 491 2Q471 2 417 0Q361 -2 342 -2Q333 -2 328 1T323 12Q323 20 331 26T350 34Q388 42 407 56T433 100L463 221L464 227Q464
240 447 240H295Q279 240 266 222L197 133Q167 96 167 73Q167 45 213 34Q238 28 238 12Q237 6 228 2T206 -2L149 -1Q111 1 91 1Q71 1 54 0T24 -2Q-10 -5 -43 -5Q-55 -5 -60 -2ZM461 285Q469 285 473 288T479 299L527 518Q529 525 529 530T525 536Q520 536 512 528L329
304Q321 294 321 291Q321 285 341 285H461ZM607 696T579 713T551 759Q551 806 588 835T682 865Q719 865 748 847T778 800Q778 752 740 724T645 696Q607 696 579 713ZM684 727T699 747T714 794Q714 810 702 820T672 830Q645 830 629 810T612 764Q612 748 625 738T658
727Q684 727 699 747Z" />
<glyph unicode="&#xc6;" glyph-name="AE" horiz-adv-x="893" d="M-71 -5T-66 11Q-63 19 -56 24T-35 33Q-5 42 24 61T75 103L517 598Q520 601 520 605Q520 611 512 612L462 621Q442 625 442 639Q442 646 450 650T470 654L555 652Q619 650 642 650L778 649Q860 649
919 660Q938 663 949 663Q958 663 963 658T968 643Q960 560 946 513Q943 504 938 499T926 494Q913 494 912 510Q909 562 899 582Q879 614 834 614H749Q707 614 691 563Q676 516 650 421L637 376L635 364Q635 349 653 349Q712 349 740 350Q762 350 777 364T811 404Q826
422 837 425H840Q844 425 846 421T846 409Q840 394 830 364Q827 353 822 339Q808 300 797 244Q790 218 779 218Q771 218 767 225T762 242Q765 307 730 307H636Q614 307 606 281L553 98Q549 86 549 73Q549 42 588 42H676Q723 42 757 66Q790 88 829 144Q840 156 851
156Q857 156 860 152T861 141Q852 115 832 77T792 9Q783 -4 765 -4L693 -3Q483 0 443 0Q423 0 375 -2Q338 -5 305 -5Q296 -5 292 -1T289 10Q291 16 298 22T317 31Q356 41 373 53T399 96L422 171L445 246Q447 252 447 255Q447 264 434 264H302Q293 264 286 261T271
246Q192 148 165 110Q148 86 148 69Q148 55 160 47T198 33Q219 28 215 12Q210 -2 189 -2L131 -1Q91 1 72 1Q59 1 41 0T14 -2Q-16 -5 -45 -5Q-71 -5 -66 11ZM450 310Q459 310 463 313T469 323L530 537Q532 548 527 548Q523 548 518 541L338 327Q331 320 331 316Q331
310 347 310H450Z" />
<glyph unicode="&#xc7;" glyph-name="Ccedilla" horiz-adv-x="665" d="M247 -14T189 20T96 116T61 251Q61 368 121 462T283 610T508 664Q561 664 617 644Q622 642 639 637T671 631Q685 631 696 637Q713 647 725 647Q737 647 737 637Q737 630 733 625Q715 602 692
550T658 458Q653 436 635 436Q626 436 622 449T619 483Q622 531 597 570Q581 596 557 612T506 628Q424 628 357 560T252 389T214 186Q214 105 251 65T354 25Q412 25 463 61T566 166Q569 171 574 178T583 188T592 192Q600 192 604 185T606 166Q594 118 565 55T524
-9Q515 -9 509 -5T499 2Q485 11 463 11Q451 11 434 6T409 -1Q359 -14 317 -14Q247 -14 189 20ZM218 -281T197 -271T164 -247T151 -217Q151 -199 159 -190T181 -180Q203 -180 232 -206Q238 -210 247 -218T263 -229T278 -233Q287 -233 292 -228T298 -213Q298 -203
293 -196T279 -181T266 -168Q252 -155 242 -140T231 -112Q231 -89 271 -50T357 17H396Q330 -31 330 -63Q330 -71 337 -79T352 -96T363 -106Q394 -134 394 -155Q394 -176 369 -206T307 -258T242 -281Q218 -281 197 -271Z" />
<glyph unicode="&#xc8;" glyph-name="Egrave" horiz-adv-x="573" d="M-47 -5T-51 -1T-54 10Q-53 16 -46 22T-26 31Q15 41 32 53T58 96L198 551Q204 569 204 581Q204 597 193 605T156 619Q134 625 137 640Q143 655 179 655L228 653Q278 649 304 649L469 650Q535
650 566 656T604 662Q611 662 616 657T622 642Q622 634 612 594Q596 542 595 514Q595 505 590 500T579 494Q574 494 570 498T564 512Q558 570 545 592T494 615H416Q390 615 375 600T347 543L299 379Q297 371 297 368Q297 354 317 354H408Q433 355 451 369T486 412Q491
421 499 426T514 432Q522 432 522 421Q522 416 519 408Q496 353 489 329Q480 301 468 248Q461 221 450 221Q443 221 438 228T434 246Q437 313 402 313H302Q276 313 270 289L219 114Q213 95 213 80Q213 57 227 47T270 36H357Q398 36 437 62Q455 74 469 93T511 155Q515
161 519 164T529 168Q535 168 537 163T539 145Q539 128 521 82T485 9Q475 -4 456 -4L367 -3Q130 0 102 0Q70 0 32 -3Q-18 -5 -38 -5Q-47 -5 -51 -1ZM447 694Q436 694 424 699Q344 740 254 789Q236 798 235 810Q232 820 259 834T302 851Q306 852 313 852Q327 852
337 842Q356 823 390 785Q428 743 449 723Q461 712 461 703Q461 694 451 694H447Z" />
<glyph unicode="&#xc9;" glyph-name="Eacute" horiz-adv-x="573" d="M-47 -5T-51 -1T-54 10Q-53 16 -46 22T-26 31Q15 41 32 53T58 96L198 551Q204 569 204 581Q204 597 193 605T156 619Q134 625 137 640Q143 655 179 655L228 653Q278 649 304 649L469 650Q535
650 566 656T604 662Q611 662 616 657T622 642Q622 634 612 594Q596 542 595 514Q595 505 590 500T579 494Q574 494 570 498T564 512Q558 570 545 592T494 615H416Q390 615 375 600T347 543L299 379Q297 371 297 368Q297 354 317 354H408Q433 355 451 369T486 412Q491
421 499 426T514 432Q522 432 522 421Q522 416 519 408Q496 353 489 329Q480 301 468 248Q461 221 450 221Q443 221 438 228T434 246Q437 313 402 313H302Q276 313 270 289L219 114Q213 95 213 80Q213 57 227 47T270 36H357Q398 36 437 62Q455 74 469 93T511 155Q515
161 519 164T529 168Q535 168 537 163T539 145Q539 128 521 82T485 9Q475 -4 456 -4L367 -3Q130 0 102 0Q70 0 32 -3Q-18 -5 -38 -5Q-47 -5 -51 -1ZM354 684T354 692V694Q354 699 362 713Q416 798 456 848Q469 862 489 862Q504 862 533 853T563 832Q563 825 559
820T546 808Q441 728 391 694Q376 684 366 684Q354 684 354 692Z" />
<glyph unicode="&#xca;" glyph-name="Ecircumflex" horiz-adv-x="573" d="M-47 -5T-51 -1T-54 10Q-53 16 -46 22T-26 31Q15 41 32 53T58 96L198 551Q204 569 204 581Q204 597 193 605T156 619Q134 625 137 640Q143 655 179 655L228 653Q278 649 304 649L469 650Q535
650 566 656T604 662Q611 662 616 657T622 642Q622 634 612 594Q596 542 595 514Q595 505 590 500T579 494Q574 494 570 498T564 512Q558 570 545 592T494 615H416Q390 615 375 600T347 543L299 379Q297 371 297 368Q297 354 317 354H408Q433 355 451 369T486 412Q491
421 499 426T514 432Q522 432 522 421Q522 416 519 408Q496 353 489 329Q480 301 468 248Q461 221 450 221Q443 221 438 228T434 246Q437 313 402 313H302Q276 313 270 289L219 114Q213 95 213 80Q213 57 227 47T270 36H357Q398 36 437 62Q455 74 469 93T511 155Q515
161 519 164T529 168Q535 168 537 163T539 145Q539 128 521 82T485 9Q475 -4 456 -4L367 -3Q130 0 102 0Q70 0 32 -3Q-18 -5 -38 -5Q-47 -5 -51 -1ZM257 693T253 696T250 705Q252 714 263 720L394 814Q420 832 430 837T452 843Q465 843 472 838T495 814L572 721Q577
715 575 705Q574 700 569 696T555 692Q544 692 508 709T444 742Q438 745 432 745Q426 745 418 742Q387 728 335 711T266 693Q257 693 253 696Z" />
<glyph unicode="&#xcb;" glyph-name="Edieresis" horiz-adv-x="573" d="M-47 -5T-51 -1T-54 10Q-53 16 -46 22T-26 31Q15 41 32 53T58 96L198 551Q204 569 204 581Q204 597 193 605T156 619Q134 625 137 640Q143 655 179 655L228 653Q278 649 304 649L469 650Q535
650 566 656T604 662Q611 662 616 657T622 642Q622 634 612 594Q596 542 595 514Q595 505 590 500T579 494Q574 494 570 498T564 512Q558 570 545 592T494 615H416Q390 615 375 600T347 543L299 379Q297 371 297 368Q297 354 317 354H408Q433 355 451 369T486 412Q491
421 499 426T514 432Q522 432 522 421Q522 416 519 408Q496 353 489 329Q480 301 468 248Q461 221 450 221Q443 221 438 228T434 246Q437 313 402 313H302Q276 313 270 289L219 114Q213 95 213 80Q213 57 227 47T270 36H357Q398 36 437 62Q455 74 469 93T511 155Q515
161 519 164T529 168Q535 168 537 163T539 145Q539 128 521 82T485 9Q475 -4 456 -4L367 -3Q130 0 102 0Q70 0 32 -3Q-18 -5 -38 -5Q-47 -5 -51 -1ZM289 689T272 706T255 745Q255 781 282 806T348 832Q373 832 389 814T406 770Q406 738 379 714T314 689Q289 689
272 706ZM488 689T471 705T453 744Q453 781 479 806T547 832Q572 832 588 814T605 770Q605 738 577 714T513 689Q488 689 471 705Z" />
<glyph unicode="&#xcc;" glyph-name="Igrave" horiz-adv-x="378" d="M-34 -3T-38 1T-41 11Q-37 27 -14 32Q28 41 46 54T73 97L214 551Q219 571 219 580Q219 595 208 603T169 619Q149 624 155 640Q156 646 163 650T179 655Q216 655 253 652Q301 650 320 650Q339
650 389 652Q443 654 467 654Q485 654 480 640Q478 631 472 627T452 619Q408 607 392 594T366 550L238 134Q225 94 225 73Q225 57 234 50T266 36Q288 31 294 26T297 12Q294 -3 275 -3Q238 -3 194 0Q138 2 120 2Q100 2 50 0Q11 -3 -26 -3Q-34 -3 -38 1ZM371 694Q360
694 348 699Q268 740 178 789Q160 798 159 810Q156 820 183 834T226 851Q230 852 237 852Q251 852 261 842Q280 823 314 785Q352 743 373 723Q385 712 385 703Q385 694 375 694H371Z" />
<glyph unicode="&#xcd;" glyph-name="Iacute" horiz-adv-x="378" d="M-34 -3T-38 1T-41 11Q-37 27 -14 32Q28 41 46 54T73 97L214 551Q219 571 219 580Q219 595 208 603T169 619Q149 624 155 640Q156 646 163 650T179 655Q216 655 253 652Q301 650 320 650Q339
650 389 652Q443 654 467 654Q485 654 480 640Q478 631 472 627T452 619Q408 607 392 594T366 550L238 134Q225 94 225 73Q225 57 234 50T266 36Q288 31 294 26T297 12Q294 -3 275 -3Q238 -3 194 0Q138 2 120 2Q100 2 50 0Q11 -3 -26 -3Q-34 -3 -38 1ZM278 684T278
692V694Q278 699 286 713Q340 798 380 848Q393 862 413 862Q428 862 457 853T487 832Q487 825 483 820T470 808Q365 728 315 694Q300 684 290 684Q278 684 278 692Z" />
<glyph unicode="&#xce;" glyph-name="Icircumflex" horiz-adv-x="378" d="M-34 -3T-38 1T-41 11Q-37 27 -14 32Q28 41 46 54T73 97L214 551Q219 571 219 580Q219 595 208 603T169 619Q149 624 155 640Q156 646 163 650T179 655Q216 655 253 652Q301 650 320 650Q339
650 389 652Q443 654 467 654Q485 654 480 640Q478 631 472 627T452 619Q408 607 392 594T366 550L238 134Q225 94 225 73Q225 57 234 50T266 36Q288 31 294 26T297 12Q294 -3 275 -3Q238 -3 194 0Q138 2 120 2Q100 2 50 0Q11 -3 -26 -3Q-34 -3 -38 1ZM181 693T177
696T174 705Q176 714 187 720L318 814Q344 832 354 837T376 843Q389 843 396 838T419 814L496 721Q501 715 499 705Q498 700 493 696T479 692Q468 692 432 709T368 742Q362 745 356 745Q350 745 342 742Q311 728 259 711T190 693Q181 693 177 696Z" />
<glyph unicode="&#xcf;" glyph-name="Idieresis" horiz-adv-x="378" d="M-34 -3T-38 1T-41 11Q-37 27 -14 32Q28 41 46 54T73 97L214 551Q219 571 219 580Q219 595 208 603T169 619Q149 624 155 640Q156 646 163 650T179 655Q216 655 253 652Q301 650 320 650Q339
650 389 652Q443 654 467 654Q485 654 480 640Q478 631 472 627T452 619Q408 607 392 594T366 550L238 134Q225 94 225 73Q225 57 234 50T266 36Q288 31 294 26T297 12Q294 -3 275 -3Q238 -3 194 0Q138 2 120 2Q100 2 50 0Q11 -3 -26 -3Q-34 -3 -38 1ZM213 689T196
706T179 745Q179 781 206 806T272 832Q297 832 313 814T330 770Q330 738 303 714T238 689Q213 689 196 706ZM412 689T395 705T377 744Q377 781 403 806T471 832Q496 832 512 814T529 770Q529 738 501 714T437 689Q412 689 395 705Z" />
<glyph unicode="&#xd0;" glyph-name="Eth" horiz-adv-x="733" d="M541 654T607 619T708 522T743 384Q743 281 685 191T526 47T306 -7Q257 -7 177 -1Q119 3 109 3Q78 3 42 0Q28 -1 8 -2T-36 -3Q-43 -3 -47 1T-51 11Q-44 29 -23 32Q19 39 36 52T63 97L129 306H66Q52
306 52 324Q52 331 53 335Q57 347 67 355T89 364H147L206 553Q210 571 210 576Q210 593 197 602T152 619Q134 624 138 640Q140 646 147 650T162 655Q200 655 240 652Q290 650 309 650Q323 650 361 652Q409 654 450 654Q541 654 607 619ZM376 30T440 84T544 225T584
401Q584 616 435 616Q401 616 385 606T362 572L299 364H397Q406 364 411 358T413 346Q402 328 388 317T360 306H282L227 123Q222 109 222 93Q222 60 246 45T306 30Q376 30 440 84Z" />
<glyph unicode="&#xd1;" glyph-name="Ntilde" horiz-adv-x="781" d="M-3 -3T-9 1T-14 11Q-9 24 17 31Q49 39 69 58T102 111L251 513Q261 539 261 560Q261 588 240 603T173 621Q144 624 144 642Q144 648 154 653T176 658L256 656Q310 653 361 653Q385 653 395 632L593
191Q595 187 598 183T605 178Q613 178 617 193Q629 225 658 324T702 500Q707 528 707 544Q707 579 688 596T624 621Q606 624 606 635Q606 641 614 646T633 651Q669 651 711 647L747 645Q765 645 778 646T800 648Q840 652 869 652Q889 652 889 638Q889 631 879 627T854
620Q828 615 812 606T784 576T758 514Q706 350 645 150Q637 124 637 111Q637 93 651 68Q663 46 675 34Q680 30 687 25T694 14Q694 5 690 3T675 0Q643 0 607 -4Q585 -7 561 -7Q535 -7 522 5T497 46Q494 54 488 69T470 110Q321 469 308 491Q306 495 303 499T298 504Q290
504 283 482Q254 409 216 295T162 110Q159 95 159 84Q159 63 173 52T221 32Q245 26 242 12Q241 5 232 1T213 -3Q180 -3 152 -1Q130 1 116 1Q94 1 25 -2L5 -3Q-3 -3 -9 1ZM407 691T400 697T393 707Q393 714 409 739T443 786T471 808Q485 808 519 806Q543 804 554
804L574 803Q612 801 638 801Q656 801 673 820Q678 826 684 834T693 842Q698 842 707 835T716 823Q716 819 709 809T698 795L675 761L658 735Q649 721 627 721Q614 721 593 723T549 726Q475 732 460 732Q447 732 430 713Q428 710 421 701T412 691Q407 691 400 697Z"
/>
<glyph unicode="&#xd2;" glyph-name="Ograve" horiz-adv-x="692" d="M226 -14T172 18T88 109T58 242Q58 350 113 447T262 604T470 664Q538 664 592 632T676 541T707 408Q707 301 652 204T502 46T294 -14Q226 -14 172 18ZM362 24T425 98T528 278T568 468Q568 537
543 583T468 630Q401 630 338 555T236 373T196 181Q196 112 220 68T294 24Q362 24 425 98ZM542 694Q531 694 519 699Q439 740 349 789Q331 798 330 810Q327 820 354 834T397 851Q401 852 408 852Q422 852 432 842Q451 823 485 785Q523 743 544 723Q556 712 556
703Q556 694 546 694H542Z" />
<glyph unicode="&#xd3;" glyph-name="Oacute" horiz-adv-x="692" d="M226 -14T172 18T88 109T58 242Q58 350 113 447T262 604T470 664Q538 664 592 632T676 541T707 408Q707 301 652 204T502 46T294 -14Q226 -14 172 18ZM362 24T425 98T528 278T568 468Q568 537
543 583T468 630Q401 630 338 555T236 373T196 181Q196 112 220 68T294 24Q362 24 425 98ZM449 684T449 692V694Q449 699 457 713Q511 798 551 848Q564 862 584 862Q599 862 628 853T658 832Q658 825 654 820T641 808Q536 728 486 694Q471 684 461 684Q449 684
449 692Z" />
<glyph unicode="&#xd4;" glyph-name="Ocircumflex" horiz-adv-x="692" d="M226 -14T172 18T88 109T58 242Q58 350 113 447T262 604T470 664Q538 664 592 632T676 541T707 408Q707 301 652 204T502 46T294 -14Q226 -14 172 18ZM362 24T425 98T528 278T568 468Q568
537 543 583T468 630Q401 630 338 555T236 373T196 181Q196 112 220 68T294 24Q362 24 425 98ZM352 693T348 696T345 705Q347 714 358 720L489 814Q515 832 525 837T547 843Q560 843 567 838T590 814L667 721Q672 715 670 705Q669 700 664 696T650 692Q639 692
603 709T539 742Q533 745 527 745Q521 745 513 742Q482 728 430 711T361 693Q352 693 348 696Z" />
<glyph unicode="&#xd5;" glyph-name="Otilde" horiz-adv-x="692" d="M226 -14T172 18T88 109T58 242Q58 350 113 447T262 604T470 664Q538 664 592 632T676 541T707 408Q707 301 652 204T502 46T294 -14Q226 -14 172 18ZM362 24T425 98T528 278T568 468Q568 537
543 583T468 630Q401 630 338 555T236 373T196 181Q196 112 220 68T294 24Q362 24 425 98ZM374 691T367 697T360 707Q360 714 376 739T410 786T438 808Q452 808 486 806Q510 804 521 804L541 803Q579 801 605 801Q623 801 640 820Q645 826 651 834T660 842Q665
842 674 835T683 823Q683 819 676 809T665 795L642 761L625 735Q616 721 594 721Q581 721 560 723T516 726Q442 732 427 732Q414 732 397 713Q395 710 388 701T379 691Q374 691 367 697Z" />
<glyph unicode="&#xd6;" glyph-name="Odieresis" horiz-adv-x="692" d="M226 -14T172 18T88 109T58 242Q58 350 113 447T262 604T470 664Q538 664 592 632T676 541T707 408Q707 301 652 204T502 46T294 -14Q226 -14 172 18ZM362 24T425 98T528 278T568 468Q568
537 543 583T468 630Q401 630 338 555T236 373T196 181Q196 112 220 68T294 24Q362 24 425 98ZM384 689T367 706T350 745Q350 781 377 806T443 832Q468 832 484 814T501 770Q501 738 474 714T409 689Q384 689 367 706ZM583 689T566 705T548 744Q548 781 574 806T642
832Q667 832 683 814T700 770Q700 738 672 714T608 689Q583 689 566 705Z" />
<glyph unicode="&#xd7;" glyph-name="multiply" horiz-adv-x="574" d="M454 50T446 58L303 200Q300 204 295 204Q290 204 286 200L151 63Q142 54 132 56Q125 57 117 71T108 99Q108 110 114 116L242 243Q247 248 247 252Q247 257 242 261L113 392Q107 398 107 406Q107
417 113 429T126 448Q129 451 134 451Q142 451 148 445L287 305Q292 300 295 300Q298 300 303 305L445 447Q451 453 458 453Q463 453 467 449Q486 425 486 408Q486 401 480 393L347 260Q343 256 343 252Q343 248 347 244L483 110Q490 104 490 93Q490 81 482 66T464
50Q454 50 446 58Z" />
<glyph unicode="&#xd8;" glyph-name="Oslash" horiz-adv-x="696" d="M767 664T774 655T782 633Q782 606 765 592L684 524Q707 472 707 408Q707 301 652 204T502 46T294 -14Q244 -14 202 3T128 54L59 -2Q45 -14 34 -14Q18 -14 6 -2T-7 23Q-7 43 11 58L84 117Q58
172 58 242Q58 350 113 447T262 604T470 664Q523 664 568 644T646 586L727 652Q744 664 755 664Q767 664 774 655ZM404 630T344 561T243 391T197 204L563 523Q554 572 531 601T468 630Q404 630 344 561ZM358 24T417 89T517 250T566 432L203 112Q213 71 236 48T294
24Q358 24 417 89Z" />
<glyph unicode="&#xd9;" glyph-name="Ugrave" horiz-adv-x="712" d="M211 -14T151 36T91 171Q91 208 105 255L193 538Q197 553 197 569Q197 609 167 618Q141 627 145 640Q146 647 155 651T177 655Q209 655 242 652Q286 650 304 650Q321 650 371 652Q419 654 439
654Q464 654 461 639Q459 632 450 627T425 617Q410 612 406 610Q364 594 344 531L250 237Q241 210 241 179Q241 125 275 93T361 60Q439 60 499 117T587 262Q628 386 646 450Q662 515 662 550Q662 577 654 591T630 615Q626 618 615 622T599 629T596 639Q599 653
629 653L688 652Q701 651 730 651Q749 651 773 653Q797 655 817 655Q842 655 838 640Q834 627 804 619Q768 610 751 592T718 529Q700 477 679 411T647 311Q644 301 630 256Q589 127 514 57T315 -14Q211 -14 151 36ZM579 694Q568 694 556 699Q476 740 386 789Q368
798 367 810Q364 820 391 834T434 851Q438 852 445 852Q459 852 469 842Q488 823 522 785Q560 743 581 723Q593 712 593 703Q593 694 583 694H579Z" />
<glyph unicode="&#xda;" glyph-name="Uacute" horiz-adv-x="712" d="M211 -14T151 36T91 171Q91 208 105 255L193 538Q197 553 197 569Q197 609 167 618Q141 627 145 640Q146 647 155 651T177 655Q209 655 242 652Q286 650 304 650Q321 650 371 652Q419 654 439
654Q464 654 461 639Q459 632 450 627T425 617Q410 612 406 610Q364 594 344 531L250 237Q241 210 241 179Q241 125 275 93T361 60Q439 60 499 117T587 262Q628 386 646 450Q662 515 662 550Q662 577 654 591T630 615Q626 618 615 622T599 629T596 639Q599 653
629 653L688 652Q701 651 730 651Q749 651 773 653Q797 655 817 655Q842 655 838 640Q834 627 804 619Q768 610 751 592T718 529Q700 477 679 411T647 311Q644 301 630 256Q589 127 514 57T315 -14Q211 -14 151 36ZM486 684T486 692V694Q486 699 494 713Q548 798
588 848Q601 862 621 862Q636 862 665 853T695 832Q695 825 691 820T678 808Q573 728 523 694Q508 684 498 684Q486 684 486 692Z" />
<glyph unicode="&#xdb;" glyph-name="Ucircumflex" horiz-adv-x="712" d="M211 -14T151 36T91 171Q91 208 105 255L193 538Q197 553 197 569Q197 609 167 618Q141 627 145 640Q146 647 155 651T177 655Q209 655 242 652Q286 650 304 650Q321 650 371 652Q419 654
439 654Q464 654 461 639Q459 632 450 627T425 617Q410 612 406 610Q364 594 344 531L250 237Q241 210 241 179Q241 125 275 93T361 60Q439 60 499 117T587 262Q628 386 646 450Q662 515 662 550Q662 577 654 591T630 615Q626 618 615 622T599 629T596 639Q599
653 629 653L688 652Q701 651 730 651Q749 651 773 653Q797 655 817 655Q842 655 838 640Q834 627 804 619Q768 610 751 592T718 529Q700 477 679 411T647 311Q644 301 630 256Q589 127 514 57T315 -14Q211 -14 151 36ZM389 693T385 696T382 705Q384 714 395 720L526
814Q552 832 562 837T584 843Q597 843 604 838T627 814L704 721Q709 715 707 705Q706 700 701 696T687 692Q676 692 640 709T576 742Q570 745 564 745Q558 745 550 742Q519 728 467 711T398 693Q389 693 385 696Z" />
<glyph unicode="&#xdc;" glyph-name="Udieresis" horiz-adv-x="712" d="M211 -14T151 36T91 171Q91 208 105 255L193 538Q197 553 197 569Q197 609 167 618Q141 627 145 640Q146 647 155 651T177 655Q209 655 242 652Q286 650 304 650Q321 650 371 652Q419 654
439 654Q464 654 461 639Q459 632 450 627T425 617Q410 612 406 610Q364 594 344 531L250 237Q241 210 241 179Q241 125 275 93T361 60Q439 60 499 117T587 262Q628 386 646 450Q662 515 662 550Q662 577 654 591T630 615Q626 618 615 622T599 629T596 639Q599
653 629 653L688 652Q701 651 730 651Q749 651 773 653Q797 655 817 655Q842 655 838 640Q834 627 804 619Q768 610 751 592T718 529Q700 477 679 411T647 311Q644 301 630 256Q589 127 514 57T315 -14Q211 -14 151 36ZM421 689T404 706T387 745Q387 781 414 806T480
832Q505 832 521 814T538 770Q538 738 511 714T446 689Q421 689 404 706ZM620 689T603 705T585 744Q585 781 611 806T679 832Q704 832 720 814T737 770Q737 738 709 714T645 689Q620 689 603 705Z" />
<glyph unicode="&#xdd;" glyph-name="Yacute" horiz-adv-x="652" d="M109 -6T103 -3T97 7Q97 25 133 31Q172 38 193 57T224 110L268 250Q277 279 277 300Q277 322 268 351L208 553Q201 578 190 593T160 614Q143 620 136 624T129 636Q129 644 137 649T156 654Q197
654 233 651Q244 651 267 650T310 648Q335 648 364 651Q374 651 394 652T430 654Q440 654 446 650T452 640Q451 632 441 627T418 619Q381 611 367 600T352 568Q352 558 355 546L397 364Q403 338 412 338Q418 338 436 358Q450 375 526 470L575 533Q602 565 602 586Q602
611 560 618Q549 621 542 626T536 640Q538 646 547 649T569 653Q584 653 612 651Q644 649 664 649Q685 649 721 653Q730 654 743 655T773 656Q786 656 793 652T797 640Q795 632 788 629T765 621Q733 612 702 594T652 555Q560 449 477 357Q443 320 423 258L378 110Q371
86 371 76Q371 59 382 49T420 31Q434 27 440 23T443 11Q442 4 434 0T413 -5Q390 -5 336 -1Q321 0 304 1T267 2Q247 2 197 -2Q143 -6 120 -6Q109 -6 103 -3ZM444 684T444 692V694Q444 699 452 713Q506 798 546 848Q559 862 579 862Q594 862 623 853T653 832Q653
825 649 820T636 808Q531 728 481 694Q466 684 456 684Q444 684 444 692Z" />
<glyph unicode="&#xde;" glyph-name="Thorn" horiz-adv-x="615" d="M474 553T523 530T598 463T625 365Q625 300 585 246T476 160T322 128Q276 128 276 150Q276 162 298 166L341 171Q389 178 422 210T471 285T487 364Q487 440 459 476T388 512Q374 512 365 507T348
484T329 431L226 98Q222 80 222 76Q222 60 233 51T273 32Q283 29 286 25T287 12Q284 -3 265 -3Q228 -3 189 0Q139 2 120 2Q100 2 50 0Q11 -3 -26 -3Q-34 -3 -38 1T-41 11Q-37 27 -14 32Q28 41 46 54T73 97L214 551Q219 571 219 580Q219 595 208 603T169 619Q149
624 155 640Q156 646 163 650T179 655Q216 655 253 652Q301 650 320 650Q339 650 389 652Q443 654 467 654Q485 654 480 640Q478 631 472 627T452 619Q409 607 393 594T367 552Q380 553 408 553Q474 553 523 530Z" />
<glyph unicode="&#xdf;" glyph-name="germandbls" d="M-143 -290T-177 -274T-211 -219Q-211 -194 -195 -176T-159 -157Q-152 -157 -145 -163T-131 -179T-121 -191Q-116 -197 -106 -211T-86 -233T-65 -242Q-40 -242 -25 -215T7 -113L67 147Q91 255 120 359Q166
537 275 621T531 706Q605 706 641 684T677 624Q677 582 643 550T547 476L523 460Q487 435 471 423T442 392T429 351Q429 336 437 317T461 268L473 244Q479 232 483 226Q500 195 508 176T516 137Q516 113 497 85T448 32Q422 11 391 -1T327 -14Q285 -14 259 4T232
51Q232 75 244 93T274 111Q292 111 315 78Q318 74 328 61T348 41T368 34Q383 34 395 45T407 74Q407 108 371 166Q350 198 338 224T326 276Q326 328 355 367T438 450Q501 501 531 537T562 613Q562 639 546 654T495 670Q414 670 352 594T259 394Q199 152 170 14Q152
-71 112 -140T18 -250T-90 -290Q-143 -290 -177 -274Z" />
<glyph unicode="&#xe0;" glyph-name="agrave" horiz-adv-x="541" d="M17 -14T-3 3T-24 37Q-24 81 17 144T164 323Q208 370 245 399T302 428Q328 428 361 402Q369 393 370 393H372Q374 393 375 395T377 400Q390 425 392 432Q398 443 417 443Q439 443 465 428T491
400Q491 396 489 390L389 118Q386 111 386 106Q386 92 400 92Q411 92 434 109T483 152Q486 155 488 155Q493 155 496 151T499 139Q499 125 481 101T432 51Q395 21 360 4T302 -14Q279 -14 258 4T236 41Q236 47 241 64Q243 72 251 90T263 119L275 147Q276 148 276
151Q276 155 274 156T269 155Q191 67 136 27T38 -14Q17 -14 -3 3ZM160 92T197 124T272 203Q304 242 323 272T342 316Q342 325 322 342Q299 360 285 360Q270 360 243 342T192 300Q160 268 137 217T113 127Q113 110 121 101T143 92Q160 92 197 124ZM336 470T319 487L212
607Q189 632 189 646Q189 659 211 677T248 695Q259 695 267 687T285 660L358 502Q362 494 362 484Q362 470 349 470Q336 470 319 487Z" />
<glyph unicode="&#xe1;" glyph-name="aacute" horiz-adv-x="541" d="M17 -14T-3 3T-24 37Q-24 81 17 144T164 323Q208 370 245 399T302 428Q328 428 361 402Q369 393 370 393H372Q374 393 375 395T377 400Q390 425 392 432Q398 443 417 443Q439 443 465 428T491
400Q491 396 489 390L389 118Q386 111 386 106Q386 92 400 92Q411 92 434 109T483 152Q486 155 488 155Q493 155 496 151T499 139Q499 125 481 101T432 51Q395 21 360 4T302 -14Q279 -14 258 4T236 41Q236 47 241 64Q243 72 251 90T263 119L275 147Q276 148 276
151Q276 155 274 156T269 155Q191 67 136 27T38 -14Q17 -14 -3 3ZM160 92T197 124T272 203Q304 242 323 272T342 316Q342 325 322 342Q299 360 285 360Q270 360 243 342T192 300Q160 268 137 217T113 127Q113 110 121 101T143 92Q160 92 197 124ZM312 470T312 484Q312
494 316 502L389 660Q398 679 406 687T426 695Q441 695 463 677T485 646Q485 632 462 607L355 487Q338 470 325 470Q312 470 312 484Z" />
<glyph unicode="&#xe2;" glyph-name="acircumflex" horiz-adv-x="541" d="M17 -14T-3 3T-24 37Q-24 81 17 144T164 323Q208 370 245 399T302 428Q328 428 361 402Q369 393 370 393H372Q374 393 375 395T377 400Q390 425 392 432Q398 443 417 443Q439 443 465 428T491
400Q491 396 489 390L389 118Q386 111 386 106Q386 92 400 92Q411 92 434 109T483 152Q486 155 488 155Q493 155 496 151T499 139Q499 125 481 101T432 51Q395 21 360 4T302 -14Q279 -14 258 4T236 41Q236 47 241 64Q243 72 251 90T263 119L275 147Q276 148 276
151Q276 155 274 156T269 155Q191 67 136 27T38 -14Q17 -14 -3 3ZM160 92T197 124T272 203Q304 242 323 272T342 316Q342 325 322 342Q299 360 285 360Q270 360 243 342T192 300Q160 268 137 217T113 127Q113 110 121 101T143 92Q160 92 197 124ZM412 688T417 679T429
647L435 626Q439 611 449 574T463 512Q464 508 464 499Q464 487 459 480T444 472Q429 472 414 503Q397 541 377 575Q374 579 372 579Q369 579 365 575L309 526L282 502Q247 472 235 472Q224 472 224 484Q224 497 237 513Q298 586 353 647Q372 668 383 678T404 688Q412
688 417 679Z" />
<glyph unicode="&#xe3;" glyph-name="atilde" horiz-adv-x="541" d="M17 -14T-3 3T-24 37Q-24 81 17 144T164 323Q208 370 245 399T302 428Q328 428 361 402Q369 393 370 393H372Q374 393 375 395T377 400Q390 425 392 432Q398 443 417 443Q439 443 465 428T491
400Q491 396 489 390L389 118Q386 111 386 106Q386 92 400 92Q411 92 434 109T483 152Q486 155 488 155Q493 155 496 151T499 139Q499 125 481 101T432 51Q395 21 360 4T302 -14Q279 -14 258 4T236 41Q236 47 241 64Q243 72 251 90T263 119L275 147Q276 148 276
151Q276 155 274 156T269 155Q191 67 136 27T38 -14Q17 -14 -3 3ZM160 92T197 124T272 203Q304 242 323 272T342 316Q342 325 322 342Q299 360 285 360Q270 360 243 342T192 300Q160 268 137 217T113 127Q113 110 121 101T143 92Q160 92 197 124ZM217 467T209 474T200
486Q200 493 220 521T263 573T294 597Q298 597 316 595Q333 592 362 589Q422 585 430 585Q448 585 465 604Q470 610 477 619T488 629Q493 629 501 622T510 610Q510 605 502 595T490 579Q483 569 461 535L447 514Q442 507 433 504T416 500Q407 500 351 504Q271 509
269 509Q257 509 250 499Q240 485 233 476T222 467Q217 467 209 474Z" />
<glyph unicode="&#xe4;" glyph-name="adieresis" horiz-adv-x="541" d="M17 -14T-3 3T-24 37Q-24 81 17 144T164 323Q208 370 245 399T302 428Q328 428 361 402Q369 393 370 393H372Q374 393 375 395T377 400Q390 425 392 432Q398 443 417 443Q439 443 465 428T491
400Q491 396 489 390L389 118Q386 111 386 106Q386 92 400 92Q411 92 434 109T483 152Q486 155 488 155Q493 155 496 151T499 139Q499 125 481 101T432 51Q395 21 360 4T302 -14Q279 -14 258 4T236 41Q236 47 241 64Q243 72 251 90T263 119L275 147Q276 148 276
151Q276 155 274 156T269 155Q191 67 136 27T38 -14Q17 -14 -3 3ZM160 92T197 124T272 203Q304 242 323 272T342 316Q342 325 322 342Q299 360 285 360Q270 360 243 342T192 300Q160 268 137 217T113 127Q113 110 121 101T143 92Q160 92 197 124ZM219 495T205 510T191
549Q191 585 219 611T285 638Q310 638 325 623T340 584Q340 547 311 521T242 495Q219 495 205 510ZM417 495T403 510T389 549Q389 585 417 611T483 638Q508 638 523 623T538 584Q538 547 509 521T440 495Q417 495 403 510Z" />
<glyph unicode="&#xe5;" glyph-name="aring" horiz-adv-x="541" d="M17 -14T-3 3T-24 37Q-24 81 17 144T164 323Q208 370 245 399T302 428Q328 428 361 402Q369 393 370 393H372Q374 393 375 395T377 400Q390 425 392 432Q398 443 417 443Q439 443 465 428T491
400Q491 396 489 390L389 118Q386 111 386 106Q386 92 400 92Q411 92 434 109T483 152Q486 155 488 155Q493 155 496 151T499 139Q499 125 481 101T432 51Q395 21 360 4T302 -14Q279 -14 258 4T236 41Q236 47 241 64Q243 72 251 90T263 119L275 147Q276 148 276
151Q276 155 274 156T269 155Q191 67 136 27T38 -14Q17 -14 -3 3ZM160 92T197 124T272 203Q304 242 323 272T342 316Q342 325 322 342Q299 360 285 360Q270 360 243 342T192 300Q160 268 137 217T113 127Q113 110 121 101T143 92Q160 92 197 124ZM306 482T282 500T258
547Q258 582 277 611T329 658T398 676Q432 676 456 659T480 612Q480 577 461 547T410 500T340 482Q306 482 282 500ZM379 519T399 546T419 599Q419 616 409 626T383 637Q358 637 339 611T319 558Q319 541 328 530T355 519Q379 519 399 546Z" />
<glyph unicode="&#xe6;" glyph-name="ae" horiz-adv-x="565" d="M348 226T346 216Q345 206 343 194T341 170Q341 134 361 109T409 83Q457 83 495 137Q506 149 511 149Q515 149 517 146T520 137Q520 129 517 123Q488 63 443 24T339 -15Q315 -15 289 0T243 43T220
103Q160 39 120 13T37 -14Q18 -14 -2 0T-22 37Q-22 106 39 188T194 332Q316 415 411 425Q440 433 466 433Q515 433 540 413T565 359Q565 320 534 289T458 242T373 225Q361 225 355 226Q348 226 346 216ZM472 379T467 388T450 398Q422 398 397 360T357 264Q356 258
363 258Q379 258 404 270T450 307T472 366Q472 379 467 388ZM227 213T248 262T302 351Q257 339 210 305Q168 274 140 224T111 134Q111 92 138 92Q151 92 173 110T221 160Q227 213 248 262Z" />
<glyph unicode="&#xe7;" glyph-name="ccedilla" horiz-adv-x="366" d="M109 -14T78 4T28 54T11 122Q13 203 49 274T147 389T282 433Q320 433 344 416T368 373Q368 354 355 336T327 317Q319 317 314 322T297 347Q286 366 274 378T249 390Q222 390 195 357T151 273T133
171Q133 136 152 116T203 96Q256 96 294 142Q302 154 313 154Q317 154 320 151T323 143Q323 111 296 74T226 11T145 -14Q109 -14 78 4ZM24 -281T3 -271T-30 -247T-43 -217Q-43 -199 -35 -190T-13 -180Q9 -180 38 -206Q44 -210 53 -218T69 -229T84 -233Q93 -233
98 -228T104 -213Q104 -203 99 -196T85 -181T72 -168Q58 -155 48 -140T37 -112Q37 -89 77 -50T163 17H202Q136 -31 136 -63Q136 -71 143 -79T158 -96T169 -106Q200 -134 200 -155Q200 -176 175 -206T113 -258T48 -281Q24 -281 3 -271Z" />
<glyph unicode="&#xe8;" glyph-name="egrave" horiz-adv-x="380" d="M109 -15T79 2T28 47T7 107Q7 188 46 263T147 386T276 433Q331 433 358 412T386 359Q386 299 320 267T151 212Q146 211 144 209T140 202Q136 187 134 170Q133 133 153 108T210 83Q237 83 259
96T307 136Q317 147 324 147Q334 147 334 137Q334 127 331 123Q298 62 250 24T136 -15Q109 -15 79 2ZM213 262T249 287T289 364Q289 377 282 387T261 397Q238 397 215 376T174 322T151 253V251Q151 245 158 247Q213 262 249 287ZM293 470T276 487L169 607Q146 632
146 646Q146 659 168 677T205 695Q216 695 224 687T242 660L315 502Q319 494 319 484Q319 470 306 470Q293 470 276 487Z" />
<glyph unicode="&#xe9;" glyph-name="eacute" horiz-adv-x="380" d="M109 -15T79 2T28 47T7 107Q7 188 46 263T147 386T276 433Q331 433 358 412T386 359Q386 299 320 267T151 212Q146 211 144 209T140 202Q136 187 134 170Q133 133 153 108T210 83Q237 83 259
96T307 136Q317 147 324 147Q334 147 334 137Q334 127 331 123Q298 62 250 24T136 -15Q109 -15 79 2ZM213 262T249 287T289 364Q289 377 282 387T261 397Q238 397 215 376T174 322T151 253V251Q151 245 158 247Q213 262 249 287ZM269 470T269 484Q269 494 273 502L346
660Q355 679 363 687T383 695Q398 695 420 677T442 646Q442 632 419 607L312 487Q295 470 282 470Q269 470 269 484Z" />
<glyph unicode="&#xea;" glyph-name="ecircumflex" horiz-adv-x="380" d="M109 -15T79 2T28 47T7 107Q7 188 46 263T147 386T276 433Q331 433 358 412T386 359Q386 299 320 267T151 212Q146 211 144 209T140 202Q136 187 134 170Q133 133 153 108T210 83Q237 83
259 96T307 136Q317 147 324 147Q334 147 334 137Q334 127 331 123Q298 62 250 24T136 -15Q109 -15 79 2ZM213 262T249 287T289 364Q289 377 282 387T261 397Q238 397 215 376T174 322T151 253V251Q151 245 158 247Q213 262 249 287ZM369 688T374 679T386 647L392
626Q396 611 406 574T420 512Q421 508 421 499Q421 487 416 480T401 472Q386 472 371 503Q354 541 334 575Q331 579 329 579Q326 579 322 575L266 526L239 502Q204 472 192 472Q181 472 181 484Q181 497 194 513Q255 586 310 647Q329 668 340 678T361 688Q369 688
374 679Z" />
<glyph unicode="&#xeb;" glyph-name="edieresis" horiz-adv-x="380" d="M109 -15T79 2T28 47T7 107Q7 188 46 263T147 386T276 433Q331 433 358 412T386 359Q386 299 320 267T151 212Q146 211 144 209T140 202Q136 187 134 170Q133 133 153 108T210 83Q237 83
259 96T307 136Q317 147 324 147Q334 147 334 137Q334 127 331 123Q298 62 250 24T136 -15Q109 -15 79 2ZM213 262T249 287T289 364Q289 377 282 387T261 397Q238 397 215 376T174 322T151 253V251Q151 245 158 247Q213 262 249 287ZM432 495T418 510T404 549Q404
585 432 611T498 638Q523 638 538 623T553 584Q553 547 524 521T455 495Q432 495 418 510ZM630 495T616 510T602 549Q602 585 630 611T696 638Q721 638 736 623T751 584Q751 547 722 521T653 495Q630 495 616 510Z" />
<glyph unicode="&#xec;" glyph-name="igrave" horiz-adv-x="332" d="M63 -14T44 3T25 40Q25 51 30 61Q48 101 69 152T99 225L133 307Q135 313 128 313Q118 313 104 306T65 284Q55 279 51 279Q37 279 37 287Q37 300 71 330T149 390T222 430Q230 432 234 432Q254
432 270 416T280 384L168 108Q165 101 165 93Q165 90 167 88T172 85Q184 85 218 109T274 155Q277 158 278 158Q283 158 287 154T291 144Q291 121 255 83T170 15T86 -14Q63 -14 44 3ZM259 724T242 741L135 861Q112 886 112 900Q112 913 134 931T171 949Q182 949
190 941T208 914L281 756Q285 748 285 738Q285 724 272 724Q259 724 242 741Z" />
<glyph unicode="&#xed;" glyph-name="iacute" horiz-adv-x="332" d="M63 -14T44 3T25 40Q25 51 30 61Q48 101 69 152T99 225L133 307Q135 313 128 313Q118 313 104 306T65 284Q55 279 51 279Q37 279 37 287Q37 300 71 330T149 390T222 430Q230 432 234 432Q254
432 270 416T280 384L168 108Q165 101 165 93Q165 90 167 88T172 85Q184 85 218 109T274 155Q277 158 278 158Q283 158 287 154T291 144Q291 121 255 83T170 15T86 -14Q63 -14 44 3ZM235 468T235 482Q235 492 239 500L312 658Q321 677 329 685T349 693Q364 693
386 675T408 644Q408 630 385 605L278 485Q261 468 248 468Q235 468 235 482Z" />
<glyph unicode="&#xee;" glyph-name="icircumflex" horiz-adv-x="332" d="M63 -14T44 3T25 40Q25 51 30 61Q48 101 69 152T99 225L133 307Q135 313 128 313Q118 313 104 306T65 284Q55 279 51 279Q37 279 37 287Q37 300 71 330T149 390T222 430Q230 432 234 432Q254
432 270 416T280 384L168 108Q165 101 165 93Q165 90 167 88T172 85Q184 85 218 109T274 155Q277 158 278 158Q283 158 287 154T291 144Q291 121 255 83T170 15T86 -14Q63 -14 44 3ZM335 942T340 933T352 901L358 880Q362 865 372 828T386 766Q387 762 387 753Q387
741 382 734T367 726Q352 726 337 757Q320 795 300 829Q297 833 295 833Q292 833 288 829L232 780L205 756Q170 726 158 726Q147 726 147 738Q147 751 160 767Q221 840 276 901Q295 922 306 932T327 942Q335 942 340 933Z" />
<glyph unicode="&#xef;" glyph-name="idieresis" horiz-adv-x="332" d="M63 -14T44 3T25 40Q25 51 30 61Q48 101 69 152T99 225L133 307Q135 313 128 313Q118 313 104 306T65 284Q55 279 51 279Q37 279 37 287Q37 300 71 330T149 390T222 430Q230 432 234 432Q254
432 270 416T280 384L168 108Q165 101 165 93Q165 90 167 88T172 85Q184 85 218 109T274 155Q277 158 278 158Q283 158 287 154T291 144Q291 121 255 83T170 15T86 -14Q63 -14 44 3ZM398 749T384 764T370 803Q370 839 398 865T464 892Q489 892 504 877T519 838Q519
801 490 775T421 749Q398 749 384 764ZM596 749T582 764T568 803Q568 839 596 865T662 892Q687 892 702 877T717 838Q717 801 688 775T619 749Q596 749 582 764Z" />
<glyph unicode="&#xf0;" glyph-name="eth" horiz-adv-x="449" d="M101 -14T72 4T26 52T12 120Q17 189 52 262T148 384T289 433Q303 433 318 428Q331 423 333 423Q337 423 340 439T344 473Q344 509 335 534L222 476Q215 473 210 473Q203 473 199 477T195 488Q199
528 219 539L323 592Q311 624 293 642T245 666Q231 669 225 673T218 685Q218 696 227 700T254 705Q307 705 348 686T417 631L511 679Q514 681 521 681Q529 681 534 678T540 668Q540 653 534 639T513 617L446 583Q470 524 470 460Q470 355 424 244T300 59T136 -14Q101
-14 72 4ZM188 25T226 81T293 214T326 350Q329 396 295 396Q267 396 228 340T159 206T125 72Q124 49 132 37T157 25Q188 25 226 81Z" />
<glyph unicode="&#xf1;" glyph-name="ntilde" horiz-adv-x="598" d="M106 -14T91 -6T64 18T53 50Q53 61 57 69L158 320Q161 329 161 334Q161 345 149 345Q98 345 68 310Q63 305 58 305Q48 305 47 315Q46 325 60 345T86 377Q144 433 225 433Q252 433 266 417T281
377Q281 362 275 347L222 216L221 213Q221 211 223 210T229 208Q237 208 240 213Q299 319 352 376T463 433Q501 433 519 411T538 354Q538 324 526 297L451 120Q445 107 445 99Q445 89 455 89Q466 89 492 107T533 140Q546 155 552 155Q555 155 558 151T562 143Q562
125 549 107Q504 54 444 20T333 -14Q316 -14 300 -1T283 29Q283 37 285 40Q300 75 313 102T336 150Q343 165 370 222T416 331Q421 344 421 355Q421 368 408 368Q392 368 373 346T336 297T312 262Q295 239 254 171T182 50Q164 19 149 3T116 -14Q106 -14 91 -6ZM248
467T240 474T231 486Q231 493 251 521T294 573T325 597Q329 597 347 595Q364 592 393 589Q453 585 461 585Q479 585 496 604Q501 610 508 619T519 629Q524 629 532 622T541 610Q541 605 533 595T521 579Q514 569 492 535L478 514Q473 507 464 504T447 500Q438 500
382 504Q302 509 300 509Q288 509 281 499Q271 485 264 476T253 467Q248 467 240 474Z" />
<glyph unicode="&#xf2;" glyph-name="ograve" horiz-adv-x="458" d="M117 -14T84 4T30 54T10 128Q10 192 46 263T149 384T300 433Q368 433 408 395T448 290Q448 226 412 155T308 35T155 -14Q117 -14 84 4ZM205 25T239 81T296 215T319 354Q319 396 285 396Q258
396 223 340T164 206T139 69Q139 47 148 36T174 25Q205 25 239 81ZM325 470T308 487L201 607Q178 632 178 646Q178 659 200 677T237 695Q248 695 256 687T274 660L347 502Q351 494 351 484Q351 470 338 470Q325 470 308 487Z" />
<glyph unicode="&#xf3;" glyph-name="oacute" horiz-adv-x="458" d="M117 -14T84 4T30 54T10 128Q10 192 46 263T149 384T300 433Q368 433 408 395T448 290Q448 226 412 155T308 35T155 -14Q117 -14 84 4ZM205 25T239 81T296 215T319 354Q319 396 285 396Q258
396 223 340T164 206T139 69Q139 47 148 36T174 25Q205 25 239 81ZM301 470T301 484Q301 494 305 502L378 660Q387 679 395 687T415 695Q430 695 452 677T474 646Q474 632 451 607L344 487Q327 470 314 470Q301 470 301 484Z" />
<glyph unicode="&#xf4;" glyph-name="ocircumflex" horiz-adv-x="458" d="M117 -14T84 4T30 54T10 128Q10 192 46 263T149 384T300 433Q368 433 408 395T448 290Q448 226 412 155T308 35T155 -14Q117 -14 84 4ZM205 25T239 81T296 215T319 354Q319 396 285 396Q258
396 223 340T164 206T139 69Q139 47 148 36T174 25Q205 25 239 81ZM401 688T406 679T418 647L424 626Q428 611 438 574T452 512Q453 508 453 499Q453 487 448 480T433 472Q418 472 403 503Q386 541 366 575Q363 579 361 579Q358 579 354 575L298 526L271 502Q236
472 224 472Q213 472 213 484Q213 497 226 513Q287 586 342 647Q361 668 372 678T393 688Q401 688 406 679Z" />
<glyph unicode="&#xf5;" glyph-name="otilde" horiz-adv-x="458" d="M117 -14T84 4T30 54T10 128Q10 192 46 263T149 384T300 433Q368 433 408 395T448 290Q448 226 412 155T308 35T155 -14Q117 -14 84 4ZM205 25T239 81T296 215T319 354Q319 396 285 396Q258
396 223 340T164 206T139 69Q139 47 148 36T174 25Q205 25 239 81ZM197 467T189 474T180 486Q180 493 200 521T243 573T274 597Q278 597 296 595Q313 592 342 589Q402 585 410 585Q428 585 445 604Q450 610 457 619T468 629Q473 629 481 622T490 610Q490 605 482
595T470 579Q463 569 441 535L427 514Q422 507 413 504T396 500Q387 500 331 504Q251 509 249 509Q237 509 230 499Q220 485 213 476T202 467Q197 467 189 474Z" />
<glyph unicode="&#xf6;" glyph-name="odieresis" horiz-adv-x="458" d="M117 -14T84 4T30 54T10 128Q10 192 46 263T149 384T300 433Q368 433 408 395T448 290Q448 226 412 155T308 35T155 -14Q117 -14 84 4ZM205 25T239 81T296 215T319 354Q319 396 285 396Q258
396 223 340T164 206T139 69Q139 47 148 36T174 25Q205 25 239 81ZM208 495T194 510T180 549Q180 585 208 611T274 638Q299 638 314 623T329 584Q329 547 300 521T231 495Q208 495 194 510ZM406 495T392 510T378 549Q378 585 406 611T472 638Q497 638 512 623T527
584Q527 547 498 521T429 495Q406 495 392 510Z" />
<glyph unicode="&#xf7;" glyph-name="divide" horiz-adv-x="595" d="M295 350T275 370T254 418Q254 448 274 468T323 489Q353 489 373 469T394 418Q394 389 374 370T323 350Q295 350 275 370ZM65 254T60 258T54 266Q54 279 62 295T85 311H563Q572 311 579 307T586
297Q586 282 576 268T550 254H72Q65 254 60 258ZM296 65T276 85T255 133Q255 163 275 183T324 204Q354 204 374 184T395 133Q395 104 375 85T324 65Q296 65 276 85Z" />
<glyph unicode="&#xf8;" glyph-name="oslash" horiz-adv-x="433" d="M463 432T466 426T471 409Q471 400 467 391T455 375L435 357Q448 326 448 290Q448 226 412 155T308 35T155 -14Q127 -14 100 -4T53 26L17 -5Q6 -14 -3 -14Q-15 -14 -26 -7T-36 10Q-33 30 -21
41L20 75Q10 102 10 128Q10 192 46 263T149 384T300 433Q363 433 403 399L433 425Q446 434 455 433Q463 432 466 426ZM256 396T219 334T159 191L319 338V354Q319 396 285 396Q256 396 219 334ZM209 25T247 95T306 254L140 95Q139 86 139 69Q139 47 148 36T174 25Q209
25 247 95Z" />
<glyph unicode="&#xf9;" glyph-name="ugrave" horiz-adv-x="596" d="M89 -14T69 11T49 65Q49 78 53 86L146 298Q152 312 152 319Q152 329 143 329Q134 329 107 310T66 278Q54 266 44 266Q36 266 36 275Q36 290 54 313Q99 368 149 401T246 434Q264 434 281 414T298
373Q298 365 295 359Q269 300 185 122Q179 109 179 98Q179 85 190 85Q201 85 225 113T292 199L314 228Q360 287 411 372Q432 405 444 419T472 433Q496 433 514 416T532 378Q532 375 530 367L430 108Q427 101 427 94Q427 86 433 86Q444 86 481 112T540 159Q543 162
544 162Q549 162 553 157T557 147Q557 127 523 93T443 32T368 4Q363 2 353 2Q336 2 321 11T298 34Q296 38 296 45Q296 54 299 61L311 87Q343 157 361 204L362 208Q362 213 358 213Q354 213 349 207Q272 102 216 44T114 -14Q89 -14 69 11ZM398 470T381 487L274 607Q251
632 251 646Q251 659 273 677T310 695Q321 695 329 687T347 660L420 502Q424 494 424 484Q424 470 411 470Q398 470 381 487Z" />
<glyph unicode="&#xfa;" glyph-name="uacute" horiz-adv-x="596" d="M89 -14T69 11T49 65Q49 78 53 86L146 298Q152 312 152 319Q152 329 143 329Q134 329 107 310T66 278Q54 266 44 266Q36 266 36 275Q36 290 54 313Q99 368 149 401T246 434Q264 434 281 414T298
373Q298 365 295 359Q269 300 185 122Q179 109 179 98Q179 85 190 85Q201 85 225 113T292 199L314 228Q360 287 411 372Q432 405 444 419T472 433Q496 433 514 416T532 378Q532 375 530 367L430 108Q427 101 427 94Q427 86 433 86Q444 86 481 112T540 159Q543 162
544 162Q549 162 553 157T557 147Q557 127 523 93T443 32T368 4Q363 2 353 2Q336 2 321 11T298 34Q296 38 296 45Q296 54 299 61L311 87Q343 157 361 204L362 208Q362 213 358 213Q354 213 349 207Q272 102 216 44T114 -14Q89 -14 69 11ZM374 470T374 484Q374 494
378 502L451 660Q460 679 468 687T488 695Q503 695 525 677T547 646Q547 632 524 607L417 487Q400 470 387 470Q374 470 374 484Z" />
<glyph unicode="&#xfb;" glyph-name="ucircumflex" horiz-adv-x="596" d="M89 -14T69 11T49 65Q49 78 53 86L146 298Q152 312 152 319Q152 329 143 329Q134 329 107 310T66 278Q54 266 44 266Q36 266 36 275Q36 290 54 313Q99 368 149 401T246 434Q264 434 281
414T298 373Q298 365 295 359Q269 300 185 122Q179 109 179 98Q179 85 190 85Q201 85 225 113T292 199L314 228Q360 287 411 372Q432 405 444 419T472 433Q496 433 514 416T532 378Q532 375 530 367L430 108Q427 101 427 94Q427 86 433 86Q444 86 481 112T540 159Q543
162 544 162Q549 162 553 157T557 147Q557 127 523 93T443 32T368 4Q363 2 353 2Q336 2 321 11T298 34Q296 38 296 45Q296 54 299 61L311 87Q343 157 361 204L362 208Q362 213 358 213Q354 213 349 207Q272 102 216 44T114 -14Q89 -14 69 11ZM474 688T479 679T491
647L497 626Q501 611 511 574T525 512Q526 508 526 499Q526 487 521 480T506 472Q491 472 476 503Q459 541 439 575Q436 579 434 579Q431 579 427 575L371 526L344 502Q309 472 297 472Q286 472 286 484Q286 497 299 513Q360 586 415 647Q434 668 445 678T466 688Q474
688 479 679Z" />
<glyph unicode="&#xfc;" glyph-name="udieresis" horiz-adv-x="596" d="M89 -14T69 11T49 65Q49 78 53 86L146 298Q152 312 152 319Q152 329 143 329Q134 329 107 310T66 278Q54 266 44 266Q36 266 36 275Q36 290 54 313Q99 368 149 401T246 434Q264 434 281 414T298
373Q298 365 295 359Q269 300 185 122Q179 109 179 98Q179 85 190 85Q201 85 225 113T292 199L314 228Q360 287 411 372Q432 405 444 419T472 433Q496 433 514 416T532 378Q532 375 530 367L430 108Q427 101 427 94Q427 86 433 86Q444 86 481 112T540 159Q543 162
544 162Q549 162 553 157T557 147Q557 127 523 93T443 32T368 4Q363 2 353 2Q336 2 321 11T298 34Q296 38 296 45Q296 54 299 61L311 87Q343 157 361 204L362 208Q362 213 358 213Q354 213 349 207Q272 102 216 44T114 -14Q89 -14 69 11ZM281 495T267 510T253 549Q253
585 281 611T347 638Q372 638 387 623T402 584Q402 547 373 521T304 495Q281 495 267 510ZM479 495T465 510T451 549Q451 585 479 611T545 638Q570 638 585 623T600 584Q600 547 571 521T502 495Q479 495 465 510Z" />
<glyph unicode="&#xfd;" glyph-name="yacute" horiz-adv-x="482" d="M-77 -289T-99 -273T-121 -226Q-121 -199 -103 -176T-61 -152Q-46 -152 -15 -175Q0 -186 12 -192T40 -198Q70 -198 99 -169T150 -90Q186 -8 186 122Q186 199 178 249T157 323T133 346Q121 346
105 323T79 279Q69 256 60 256Q57 256 54 264T51 284Q51 319 74 355T130 415T192 439Q220 439 238 420T269 362Q299 262 299 136Q299 102 298 83V79Q298 66 302 66Q307 66 313 80Q347 144 361 225T373 415Q373 423 385 431T406 440Q415 440 431 431T459 407T471
375Q471 283 394 146T190 -130Q127 -199 63 -244T-47 -289Q-77 -289 -99 -273ZM277 470T277 484Q277 494 281 502L354 660Q363 679 371 687T391 695Q406 695 428 677T450 646Q450 632 427 607L320 487Q303 470 290 470Q277 470 277 484Z" />
<glyph unicode="&#xfe;" glyph-name="thorn" horiz-adv-x="531" d="M479 433T503 409T528 344Q528 258 477 175T344 40T173 -13Q151 -13 123 -6L67 -204Q66 -208 66 -214Q66 -229 79 -237T121 -254Q129 -257 132 -260T134 -271Q133 -282 116 -282Q86 -282 68 -281Q53
-281 33 -281T-8 -281Q-23 -281 -65 -283Q-109 -285 -128 -285Q-133 -285 -136 -282T-138 -274Q-137 -260 -116 -255Q-83 -247 -70 -239T-50 -207L191 539Q203 575 203 599Q203 610 194 616T169 628Q147 636 147 644Q147 650 151 654T171 664Q205 675 261 691T332
707Q343 707 350 705T358 694Q358 678 349 653Q336 612 298 507Q239 344 214 261L213 255Q213 252 214 252Q216 252 221 259Q275 343 334 388T445 433Q479 433 503 409ZM345 165T370 225T396 318Q396 324 394 332Q390 341 378 341Q366 341 346 329Q319 325 276
277T200 172T167 86Q167 64 182 45T215 26Q231 26 261 53T316 120Q345 165 370 225Z" />
<glyph unicode="&#xff;" glyph-name="ydieresis" horiz-adv-x="482" d="M-77 -289T-99 -273T-121 -226Q-121 -199 -103 -176T-61 -152Q-46 -152 -15 -175Q0 -186 12 -192T40 -198Q70 -198 99 -169T150 -90Q186 -8 186 122Q186 199 178 249T157 323T133 346Q121
346 105 323T79 279Q69 256 60 256Q57 256 54 264T51 284Q51 319 74 355T130 415T192 439Q220 439 238 420T269 362Q299 262 299 136Q299 102 298 83V79Q298 66 302 66Q307 66 313 80Q347 144 361 225T373 415Q373 423 385 431T406 440Q415 440 431 431T459 407T471
375Q471 283 394 146T190 -130Q127 -199 63 -244T-47 -289Q-77 -289 -99 -273ZM440 495T426 510T412 549Q412 585 440 611T506 638Q531 638 546 623T561 584Q561 547 532 521T463 495Q440 495 426 510ZM638 495T624 510T610 549Q610 585 638 611T704 638Q729 638
744 623T759 584Q759 547 730 521T661 495Q638 495 624 510Z" />
<glyph unicode="&#x2013;" glyph-name="endash" horiz-adv-x="626" d="M39 182T35 186T33 195Q38 209 50 225T75 241H576Q586 241 590 237T593 226Q588 211 574 197T547 182H46Q39 182 35 186Z" />
<glyph unicode="&#x2014;" glyph-name="emdash" horiz-adv-x="949" d="M27 182T23 186T21 195Q26 209 37 225T63 241H911Q921 241 926 237T928 226Q923 211 909 197T882 182H33Q27 182 23 186Z" />
<glyph unicode="&#x2018;" glyph-name="quoteleft" horiz-adv-x="268" d="M362 691T367 687T370 675Q365 660 341 655Q300 647 270 619T239 560Q239 538 269 527Q282 523 290 514T298 489Q298 458 275 436T219 413Q183 413 160 436T136 498Q136 543 167 588T248
662T350 691Q362 691 367 687Z" />
<glyph unicode="&#x2019;" glyph-name="quoteright" horiz-adv-x="268" d="M119 413T114 417T111 429Q116 444 140 449Q181 457 211 485T242 544Q242 566 212 577Q199 581 191 590T183 615Q183 646 206 668T262 691Q298 691 321 668T345 606Q345 561 314 516T233
442T131 413Q119 413 114 417Z" />
<glyph unicode="&#x201a;" glyph-name="quotesinglbase" horiz-adv-x="268" d="M-58 -159T-63 -155T-66 -143Q-61 -128 -37 -123Q4 -115 34 -87T65 -28Q65 -6 35 5Q22 9 14 18T6 43Q6 74 29 96T85 119Q121 119 144 96T168 34Q168 -11 137 -56T56 -130T-46 -159Q-58
-159 -63 -155Z" />
<glyph unicode="&#x201c;" glyph-name="quotedblleft" horiz-adv-x="470" d="M564 692T569 688T572 676Q567 661 543 656Q502 648 472 620T441 561Q441 539 471 528Q484 524 492 515T500 490Q500 459 477 437T421 414Q385 414 362 437T338 499Q338 544 369 589T450
663T552 692Q564 692 569 688ZM362 692T367 688T370 676Q365 661 341 656Q300 648 270 620T239 561Q239 539 269 528Q282 524 290 515T298 490Q298 459 275 437T219 414Q183 414 160 437T136 499Q136 544 167 589T248 663T350 692Q362 692 367 688Z" />
<glyph unicode="&#x201d;" glyph-name="quotedblright" horiz-adv-x="470" d="M119 414T114 418T111 430Q116 445 140 450Q181 458 211 486T242 545Q242 567 212 578Q199 582 191 591T183 616Q183 647 206 669T262 692Q298 692 321 669T345 607Q345 562 314 517T233
443T131 414Q119 414 114 418ZM321 414T316 418T313 430Q318 445 342 450Q383 458 413 486T444 545Q444 567 414 578Q401 582 393 591T385 616Q385 647 408 669T464 692Q500 692 523 669T547 607Q547 562 516 517T435 443T333 414Q321 414 316 418Z" />
<glyph unicode="&#x201e;" glyph-name="quotedblbase" horiz-adv-x="470" d="M-58 -159T-63 -155T-66 -143Q-61 -128 -37 -123Q4 -115 34 -87T65 -28Q65 -6 35 5Q22 9 14 18T6 43Q6 74 29 96T85 119Q121 119 144 96T168 34Q168 -11 137 -56T56 -130T-46 -159Q-58
-159 -63 -155ZM144 -159T139 -155T136 -143Q141 -128 165 -123Q206 -115 236 -87T267 -28Q267 -6 237 5Q224 9 216 18T208 43Q208 74 231 96T287 119Q323 119 346 96T370 34Q370 -11 339 -56T258 -130T156 -159Q144 -159 139 -155Z" />
<glyph unicode="&#x2022;" glyph-name="bullet" horiz-adv-x="373" d="M166 206T139 222T96 266T80 325Q80 372 104 413T170 479T258 504Q295 504 323 486T366 437T381 376Q381 331 356 292T289 229T198 206Q166 206 139 222Z" />
<glyph unicode="&#x2039;" glyph-name="guilsinglleft" horiz-adv-x="411" d="M272 16T264 25T254 36Q213 84 173 116T72 186Q69 188 62 192T52 200T49 207Q49 213 56 218T72 227Q156 264 223 304T375 406Q377 407 383 412T399 417Q409 417 409 410Q409 401 398
388Q345 329 298 294T186 216Q178 211 178 207Q178 205 183 200Q218 162 244 127T293 43Q295 37 295 33Q295 26 292 21T284 16Q272 16 264 25Z" />
<glyph unicode="&#x203a;" glyph-name="guilsinglright" horiz-adv-x="411" d="M143 417T151 408T161 397Q202 349 242 317T343 247Q346 245 353 241T363 233T366 226Q366 220 359 215T343 206Q259 169 192 129T40 27Q38 26 32 21T16 16Q6 16 6 23Q6 32 17 45Q70
104 117 139T229 217Q237 222 237 226Q237 228 232 233Q197 271 171 306T122 390Q120 396 120 400Q120 407 123 412T131 417Q143 417 151 408Z" />
</font>
</defs>
</svg>
